<svg width="175" height="48" viewBox="0 0 175 48" fill="none" xmlns="http://www.w3.org/2000/svg">
<g filter="url(#filter0_iii_3046_38804)">
<g clip-path="url(#clip0_3046_38804)">
<rect width="48" height="48" rx="12" fill="#099250"/>
<rect width="48" height="48" fill="url(#paint0_linear_3046_38804)"/>
<g filter="url(#filter1_d_3046_38804)">
<rect opacity="0.8" x="12.4492" y="20.4004" width="7.19999" height="7.19999" fill="url(#paint1_linear_3046_38804)"/>
<rect opacity="0.8" x="35.5508" y="27.5996" width="7.2" height="7.19999" transform="rotate(180 35.5508 27.5996)" fill="url(#paint2_linear_3046_38804)"/>
<path opacity="0.2" d="M19.6484 20.4002L28.3484 13.2002V20.4002L19.6484 27.6002V20.4002Z" fill="url(#paint3_linear_3046_38804)"/>
<path opacity="0.4" d="M28.3496 27.5998L19.6496 34.7998L19.6496 27.5998L28.3496 20.3998L28.3496 27.5998Z" fill="url(#paint4_linear_3046_38804)"/>
<path opacity="0.6" d="M12.4492 20.4L28.3492 6V13.2L19.6492 20.4H12.4492Z" fill="url(#paint5_linear_3046_38804)"/>
<path opacity="0.7" d="M35.5508 27.6L19.6508 42L19.6508 34.8L28.3508 27.6L35.5508 27.6Z" fill="url(#paint6_linear_3046_38804)"/>
</g>
</g>
<rect x="1" y="1" width="46" height="46" rx="11" stroke="url(#paint7_linear_3046_38804)" stroke-width="2"/>
</g>
<path d="M68.127 33.2432C65.463 33.2432 63.438 32.6492 62.052 31.4612C60.684 30.2732 60 28.7252 60 26.8172H64.266C64.302 27.7892 64.626 28.5722 65.238 29.1662C65.868 29.7422 66.885 30.0302 68.289 30.0302C69.369 30.0302 70.233 29.8322 70.881 29.4362C71.529 29.0402 71.853 28.4552 71.853 27.6812C71.853 27.0512 71.718 26.5652 71.448 26.2232C71.178 25.8632 70.71 25.5842 70.044 25.3862C69.378 25.1882 68.451 24.9902 67.263 24.7922C64.995 24.4322 63.285 23.8202 62.133 22.9562C60.981 22.0742 60.405 20.7782 60.405 19.0682C60.405 17.2142 61.089 15.7562 62.457 14.6942C63.825 13.6142 65.706 13.0742 68.1 13.0742C69.648 13.0742 70.98 13.3172 72.096 13.8032C73.212 14.2892 74.076 14.9732 74.688 15.8552C75.318 16.7372 75.633 17.7632 75.633 18.9332H71.394C71.358 17.9792 71.007 17.2952 70.341 16.8812C69.693 16.4672 68.901 16.2602 67.965 16.2602C66.975 16.2602 66.192 16.4672 65.616 16.8812C65.058 17.2772 64.779 17.8262 64.779 18.5282C64.779 19.1402 64.941 19.5992 65.265 19.9052C65.589 20.2112 66.093 20.4452 66.777 20.6072C67.479 20.7692 68.397 20.9492 69.531 21.1472C70.359 21.2732 71.169 21.4442 71.961 21.6602C72.753 21.8762 73.464 22.2002 74.094 22.6322C74.742 23.0462 75.255 23.6312 75.633 24.3872C76.029 25.1252 76.227 26.0882 76.227 27.2762C76.227 29.0402 75.543 30.4802 74.175 31.5962C72.825 32.6942 70.809 33.2432 68.127 33.2432Z" fill="#0A0D12"/>
<path d="M78.41 16.6652V13.3172H82.379V16.6652H78.41ZM78.41 33.0002V18.5282H82.379V33.0002H78.41Z" fill="#0A0D12"/>
<path d="M90.9523 33.2702C88.8463 33.2702 87.2173 32.8292 86.0653 31.9472C84.9313 31.0472 84.3733 29.8772 84.3913 28.4372H88.2793C88.2973 29.2112 88.5673 29.7692 89.0893 30.1112C89.6293 30.4352 90.2863 30.5972 91.0603 30.5972C91.8703 30.5972 92.4823 30.4622 92.8963 30.1922C93.3103 29.9042 93.5173 29.5172 93.5173 29.0312C93.5173 28.3652 93.2743 27.9332 92.7883 27.7352C92.3203 27.5372 91.5733 27.3662 90.5473 27.2222C89.4853 27.0782 88.5133 26.8712 87.6313 26.6012C86.7493 26.3132 86.0473 25.8812 85.5253 25.3052C85.0213 24.7292 84.7693 23.9102 84.7693 22.8482C84.7693 21.3182 85.3453 20.1752 86.4973 19.4192C87.6673 18.6452 89.1973 18.2582 91.0873 18.2582C92.9413 18.2582 94.4173 18.6632 95.5153 19.4732C96.6133 20.2652 97.1803 21.3812 97.2163 22.8212H93.3283C93.3283 22.2092 93.1123 21.7412 92.6803 21.4172C92.2663 21.0932 91.6993 20.9312 90.9793 20.9312C90.2413 20.9312 89.6833 21.0752 89.3053 21.3632C88.9273 21.6332 88.7383 21.9932 88.7383 22.4432C88.7383 22.9832 88.9813 23.3612 89.4673 23.5772C89.9533 23.7932 90.7273 23.9732 91.7893 24.1172C92.5453 24.2252 93.2653 24.3602 93.9493 24.5222C94.6333 24.6662 95.2363 24.9002 95.7583 25.2242C96.2983 25.5302 96.7213 25.9622 97.0273 26.5202C97.3513 27.0602 97.5133 27.7712 97.5133 28.6532C97.5133 30.2372 96.9283 31.4072 95.7583 32.1632C94.5883 32.9012 92.9863 33.2702 90.9523 33.2702Z" fill="#0A0D12"/>
<path d="M98.5718 37.5092V34.2422H100.246C100.84 34.2422 101.308 34.1162 101.65 33.8642C102.01 33.6302 102.28 33.2612 102.46 32.7572L102.811 31.8662L97.2758 18.5282H101.623L104.269 26.2772L104.728 27.8162H104.863L105.295 26.2772L107.779 18.5282H112.018L106.375 33.6752C105.817 35.1872 105.088 36.2042 104.188 36.7262C103.306 37.2482 102.244 37.5092 101.002 37.5092H98.5718Z" fill="#0A0D12"/>
<path d="M113.124 37.5092V18.5282H116.958L117.093 21.0392H117.309C117.651 20.1932 118.218 19.5182 119.01 19.0142C119.82 18.5102 120.783 18.2582 121.899 18.2582C123.627 18.2582 125.022 18.8882 126.084 20.1482C127.164 21.3902 127.704 23.2622 127.704 25.7642C127.704 28.2482 127.164 30.1202 126.084 31.3802C125.022 32.6402 123.627 33.2702 121.899 33.2702C120.783 33.2702 119.82 33.0182 119.01 32.5142C118.218 31.9922 117.651 31.3172 117.309 30.4892H117.093V37.5092H113.124ZM120.414 30.0572C121.386 30.0572 122.16 29.7152 122.736 29.0312C123.33 28.3292 123.627 27.2402 123.627 25.7642C123.627 24.2882 123.33 23.2082 122.736 22.5242C122.16 21.8222 121.386 21.4712 120.414 21.4712C119.676 21.4712 119.064 21.6422 118.578 21.9842C118.092 22.3262 117.732 22.7762 117.498 23.3342C117.264 23.8742 117.147 24.4502 117.147 25.0622V26.4662C117.147 27.0782 117.264 27.6632 117.498 28.2212C117.732 28.7612 118.092 29.2022 118.578 29.5442C119.064 29.8862 119.676 30.0572 120.414 30.0572Z" fill="#0A0D12"/>
<path d="M129.67 33.0002V13.3172H133.639V21.1472H133.801C134.197 20.1932 134.809 19.4732 135.637 18.9872C136.465 18.5012 137.392 18.2582 138.418 18.2582C139.39 18.2582 140.254 18.4562 141.01 18.8522C141.784 19.2482 142.396 19.8872 142.846 20.7692C143.296 21.6332 143.521 22.7942 143.521 24.2522V33.0002H139.552V25.1162C139.552 23.8922 139.336 22.9832 138.904 22.3892C138.472 21.7952 137.779 21.4982 136.825 21.4982C135.799 21.4982 135.007 21.8492 134.449 22.5512C133.909 23.2352 133.639 24.0362 133.639 24.9542V33.0002H129.67Z" fill="#0A0D12"/>
<path d="M151.001 33.2432C149.327 33.2432 148.049 32.7572 147.167 31.7852C146.285 30.8132 145.844 29.4002 145.844 27.5462V18.5282H149.813V26.4932C149.813 27.6452 150.02 28.5272 150.434 29.1392C150.866 29.7332 151.577 30.0302 152.567 30.0302C153.575 30.0302 154.349 29.6882 154.889 29.0042C155.447 28.3022 155.726 27.4742 155.726 26.5202V18.5282H159.695V33.0002H155.888L155.726 30.3542H155.537C155.195 31.2902 154.61 32.0102 153.782 32.5142C152.972 33.0002 152.045 33.2432 151.001 33.2432Z" fill="#0A0D12"/>
<path d="M168.224 33.2702C166.118 33.2702 164.489 32.8292 163.337 31.9472C162.203 31.0472 161.645 29.8772 161.663 28.4372H165.551C165.569 29.2112 165.839 29.7692 166.361 30.1112C166.901 30.4352 167.558 30.5972 168.332 30.5972C169.142 30.5972 169.754 30.4622 170.168 30.1922C170.582 29.9042 170.789 29.5172 170.789 29.0312C170.789 28.3652 170.546 27.9332 170.06 27.7352C169.592 27.5372 168.845 27.3662 167.819 27.2222C166.757 27.0782 165.785 26.8712 164.903 26.6012C164.021 26.3132 163.319 25.8812 162.797 25.3052C162.293 24.7292 162.041 23.9102 162.041 22.8482C162.041 21.3182 162.617 20.1752 163.769 19.4192C164.939 18.6452 166.469 18.2582 168.359 18.2582C170.213 18.2582 171.689 18.6632 172.787 19.4732C173.885 20.2652 174.452 21.3812 174.488 22.8212H170.6C170.6 22.2092 170.384 21.7412 169.952 21.4172C169.538 21.0932 168.971 20.9312 168.251 20.9312C167.513 20.9312 166.955 21.0752 166.577 21.3632C166.199 21.6332 166.01 21.9932 166.01 22.4432C166.01 22.9832 166.253 23.3612 166.739 23.5772C167.225 23.7932 167.999 23.9732 169.061 24.1172C169.817 24.2252 170.537 24.3602 171.221 24.5222C171.905 24.6662 172.508 24.9002 173.03 25.2242C173.57 25.5302 173.993 25.9622 174.299 26.5202C174.623 27.0602 174.785 27.7712 174.785 28.6532C174.785 30.2372 174.2 31.4072 173.03 32.1632C171.86 32.9012 170.258 33.2702 168.224 33.2702Z" fill="#0A0D12"/>
<defs>
<filter id="filter0_iii_3046_38804" x="0" y="-3" width="48" height="54" filterUnits="userSpaceOnUse" color-interpolation-filters="sRGB">
<feFlood flood-opacity="0" result="BackgroundImageFix"/>
<feBlend mode="normal" in="SourceGraphic" in2="BackgroundImageFix" result="shape"/>
<feColorMatrix in="SourceAlpha" type="matrix" values="0 0 0 0 0 0 0 0 0 0 0 0 0 0 0 0 0 0 127 0" result="hardAlpha"/>
<feOffset dy="-3"/>
<feGaussianBlur stdDeviation="1.5"/>
<feComposite in2="hardAlpha" operator="arithmetic" k2="-1" k3="1"/>
<feColorMatrix type="matrix" values="0 0 0 0 0 0 0 0 0 0 0 0 0 0 0 0 0 0 0.1 0"/>
<feBlend mode="normal" in2="shape" result="effect1_innerShadow_3046_38804"/>
<feColorMatrix in="SourceAlpha" type="matrix" values="0 0 0 0 0 0 0 0 0 0 0 0 0 0 0 0 0 0 127 0" result="hardAlpha"/>
<feOffset dy="3"/>
<feGaussianBlur stdDeviation="1.5"/>
<feComposite in2="hardAlpha" operator="arithmetic" k2="-1" k3="1"/>
<feColorMatrix type="matrix" values="0 0 0 0 1 0 0 0 0 1 0 0 0 0 1 0 0 0 0.1 0"/>
<feBlend mode="normal" in2="effect1_innerShadow_3046_38804" result="effect2_innerShadow_3046_38804"/>
<feColorMatrix in="SourceAlpha" type="matrix" values="0 0 0 0 0 0 0 0 0 0 0 0 0 0 0 0 0 0 127 0" result="hardAlpha"/>
<feMorphology radius="1" operator="erode" in="SourceAlpha" result="effect3_innerShadow_3046_38804"/>
<feOffset/>
<feComposite in2="hardAlpha" operator="arithmetic" k2="-1" k3="1"/>
<feColorMatrix type="matrix" values="0 0 0 0 0 0 0 0 0 0 0 0 0 0 0 0 0 0 0.2 0"/>
<feBlend mode="normal" in2="effect2_innerShadow_3046_38804" result="effect3_innerShadow_3046_38804"/>
</filter>
<filter id="filter1_d_3046_38804" x="9" y="5.25" width="30" height="42" filterUnits="userSpaceOnUse" color-interpolation-filters="sRGB">
<feFlood flood-opacity="0" result="BackgroundImageFix"/>
<feColorMatrix in="SourceAlpha" type="matrix" values="0 0 0 0 0 0 0 0 0 0 0 0 0 0 0 0 0 0 127 0" result="hardAlpha"/>
<feMorphology radius="1.5" operator="erode" in="SourceAlpha" result="effect1_dropShadow_3046_38804"/>
<feOffset dy="2.25"/>
<feGaussianBlur stdDeviation="2.25"/>
<feComposite in2="hardAlpha" operator="out"/>
<feColorMatrix type="matrix" values="0 0 0 0 0.141176 0 0 0 0 0.141176 0 0 0 0 0.141176 0 0 0 0.1 0"/>
<feBlend mode="normal" in2="BackgroundImageFix" result="effect1_dropShadow_3046_38804"/>
<feBlend mode="normal" in="SourceGraphic" in2="effect1_dropShadow_3046_38804" result="shape"/>
</filter>
<linearGradient id="paint0_linear_3046_38804" x1="24" y1="5.96047e-07" x2="26" y2="48" gradientUnits="userSpaceOnUse">
<stop stop-color="white" stop-opacity="0"/>
<stop offset="1" stop-color="white" stop-opacity="0.12"/>
</linearGradient>
<linearGradient id="paint1_linear_3046_38804" x1="16.0492" y1="20.4004" x2="16.0492" y2="27.6004" gradientUnits="userSpaceOnUse">
<stop stop-color="white" stop-opacity="0.8"/>
<stop offset="1" stop-color="white" stop-opacity="0.5"/>
</linearGradient>
<linearGradient id="paint2_linear_3046_38804" x1="39.1508" y1="27.5996" x2="39.1508" y2="34.7996" gradientUnits="userSpaceOnUse">
<stop stop-color="white" stop-opacity="0.8"/>
<stop offset="1" stop-color="white" stop-opacity="0.5"/>
</linearGradient>
<linearGradient id="paint3_linear_3046_38804" x1="23.9984" y1="13.2002" x2="23.9984" y2="27.6002" gradientUnits="userSpaceOnUse">
<stop stop-color="white" stop-opacity="0.8"/>
<stop offset="1" stop-color="white" stop-opacity="0.5"/>
</linearGradient>
<linearGradient id="paint4_linear_3046_38804" x1="23.9996" y1="34.7998" x2="23.9996" y2="20.3998" gradientUnits="userSpaceOnUse">
<stop stop-color="white" stop-opacity="0.8"/>
<stop offset="1" stop-color="white" stop-opacity="0.5"/>
</linearGradient>
<linearGradient id="paint5_linear_3046_38804" x1="20.3992" y1="6" x2="20.3992" y2="20.4" gradientUnits="userSpaceOnUse">
<stop stop-color="white" stop-opacity="0.8"/>
<stop offset="1" stop-color="white" stop-opacity="0.5"/>
</linearGradient>
<linearGradient id="paint6_linear_3046_38804" x1="27.6008" y1="42" x2="27.6008" y2="27.6" gradientUnits="userSpaceOnUse">
<stop stop-color="white" stop-opacity="0.8"/>
<stop offset="1" stop-color="white" stop-opacity="0.5"/>
</linearGradient>
<linearGradient id="paint7_linear_3046_38804" x1="24" y1="0" x2="24" y2="48" gradientUnits="userSpaceOnUse">
<stop stop-color="white" stop-opacity="0.12"/>
<stop offset="1" stop-color="white" stop-opacity="0"/>
</linearGradient>
<clipPath id="clip0_3046_38804">
<rect width="48" height="48" rx="12" fill="white"/>
</clipPath>
</defs>
</svg>
