<svg width="237" height="48" viewBox="0 0 237 48" fill="none" xmlns="http://www.w3.org/2000/svg">
<g filter="url(#filter0_iii_3046_38805)">
<g clip-path="url(#clip0_3046_38805)">
<rect width="48" height="48" rx="12" fill="#175CD3"/>
<rect width="48" height="48" fill="url(#paint0_linear_3046_38805)"/>
<g filter="url(#filter1_d_3046_38805)">
<path d="M24 9V18.2703C24 20.3152 21.4927 21.2998 20.1012 19.8013L14.25 13.5M39 24H29.7297C27.6848 24 26.7002 21.4927 28.1987 20.1012L34.5 14.25M24 39V29.7297C24 27.6848 26.5073 26.7002 27.8988 28.1987L33.75 34.5M9 24L18.2703 24C20.3152 24 21.2998 26.5073 19.8013 27.8988L13.5 33.75" stroke="url(#paint1_linear_3046_38805)" stroke-width="3"/>
</g>
</g>
<rect x="1" y="1" width="46" height="46" rx="11" stroke="url(#paint2_linear_3046_38805)" stroke-width="2"/>
</g>
<path d="M68.613 33.4594C63.483 33.4594 60.108 31.1914 60 26.9254H64.806C65.022 28.8694 66.291 29.6794 68.586 29.6794C70.152 29.6794 71.691 29.1124 71.691 27.6544C71.691 26.1154 70.125 25.7914 67.479 25.1434C64.131 24.3604 60.594 23.3344 60.594 19.2844C60.594 15.1534 63.942 13.3444 68.262 13.3444C72.447 13.3444 75.687 15.2344 75.876 19.2844H71.205C71.016 17.7994 69.882 16.9624 68.1 16.9624C66.426 16.9624 65.319 17.6914 65.319 18.7714C65.319 20.1214 66.804 20.4454 69.693 21.0934C73.284 21.9304 76.524 23.0374 76.524 27.1684C76.524 31.2184 73.068 33.4594 68.613 33.4594Z" fill="#0A0D12"/>
<path d="M85.0904 30.3004C87.0074 30.3004 88.0334 28.6264 88.0334 26.1154C88.0334 23.6044 87.0074 21.9034 85.0904 21.9034C83.1734 21.9034 82.1744 23.6044 82.1744 26.1154C82.1744 28.6264 83.1734 30.3004 85.0904 30.3004ZM85.1174 33.4324C80.6894 33.4324 77.7194 30.2734 77.7194 26.1154C77.7194 21.9574 80.6894 18.7984 85.1174 18.7984C89.5724 18.7984 92.4884 21.9574 92.4884 26.1154C92.4884 30.2734 89.5724 33.4324 85.1174 33.4324Z" fill="#0A0D12"/>
<path d="M94.0031 33.0004V13.6954H98.4581V33.0004H94.0031Z" fill="#0A0D12"/>
<path d="M104.644 33.3514C101.89 33.3514 99.9463 31.8934 99.9463 29.1664C99.9463 26.1154 102.376 25.1704 105.238 24.7924C107.83 24.4684 108.748 24.1984 108.748 23.2534C108.748 22.3624 108.154 21.7684 106.804 21.7684C105.373 21.7684 104.698 22.3894 104.59 23.5504H100.54C100.621 20.9854 102.565 18.7984 106.777 18.7984C108.883 18.7984 110.503 19.2574 111.529 20.0944C112.582 20.9854 113.068 22.1464 113.068 23.8744V29.3014C113.068 30.1924 113.311 30.4084 113.986 30.3004H114.067V32.8654C113.716 33.0274 113.041 33.2434 112.15 33.2434C110.26 33.2434 109.288 32.6764 108.964 31.3804H108.937C108.127 32.5144 106.885 33.3514 104.644 33.3514ZM106.075 30.5434C107.722 30.5434 108.856 29.5444 108.856 28.0594V26.4124C108.289 26.7364 107.479 26.9524 106.588 27.1414C104.887 27.5194 104.185 27.9514 104.185 29.0044C104.185 30.0844 104.995 30.5434 106.075 30.5434Z" fill="#0A0D12"/>
<path d="M115.202 33.0004V19.1764H119.66L119.414 21.3364H119.495C120.467 19.6894 121.601 18.9604 123.275 18.9604C123.68 18.9604 123.95 18.9874 124.139 19.0684V22.8484H124.031C121.331 22.4704 119.603 23.7934 119.603 26.7904V33.0004H115.202Z" fill="#0A0D12"/>
<path d="M125.538 33.0004V19.1764H129.939V33.0004H125.538Z" fill="#0A0D12"/>
<path d="M137.936 33.4324C133.886 33.4324 131.348 31.5694 131.213 28.5184H135.371C135.533 29.8954 136.451 30.5704 137.909 30.5704C139.232 30.5704 140.069 30.0844 140.069 29.1934C140.069 27.9514 138.395 27.8164 136.559 27.4924C134.156 27.0874 131.591 26.4394 131.591 23.1994C131.591 20.2834 134.291 18.7714 137.558 18.7714C141.473 18.7714 143.579 20.4724 143.795 23.1994H139.745C139.583 21.9574 138.746 21.5794 137.531 21.5794C136.451 21.5794 135.614 21.9844 135.614 22.8484C135.614 23.8204 137.18 23.9554 138.935 24.2794C141.365 24.6844 144.227 25.3054 144.227 28.8424C144.227 31.8664 141.554 33.4324 137.936 33.4324Z" fill="#0A0D12"/>
<path d="M150.118 33.0004V13.6954H164.752V17.6374H154.897V21.0934H163.348V24.8194H154.897V28.9504H164.914V33.0004H150.118Z" fill="#0A0D12"/>
<path d="M166.802 33.0004V19.1764H171.29L171.041 21.0664H171.122C172.148 19.5814 173.471 18.7714 175.388 18.7714C178.412 18.7714 180.194 20.9314 180.194 24.0094V33.0004H175.793V24.9004C175.793 23.4424 175.064 22.4434 173.633 22.4434C172.175 22.4434 171.203 23.6584 171.203 25.3594V33.0004H166.802Z" fill="#0A0D12"/>
<path d="M188.951 33.4054C184.388 33.4054 181.58 30.2464 181.58 26.0614C181.58 21.9304 184.469 18.7714 188.681 18.7714C190.652 18.7714 192.218 19.4194 193.406 20.4994C195.053 22.0114 195.863 24.4144 195.836 27.2224H185.9C186.17 29.0854 187.196 30.2464 189.005 30.2464C190.166 30.2464 190.922 29.7334 191.3 28.8694H195.593C195.296 30.1114 194.486 31.2994 193.271 32.1364C192.11 32.9464 190.706 33.4054 188.951 33.4054ZM185.927 24.6034H191.381C191.219 22.9564 190.193 21.9034 188.762 21.9034C187.088 21.9034 186.224 22.9564 185.927 24.6034Z" fill="#0A0D12"/>
<path d="M197.309 33.0004V19.1764H201.77L201.521 21.3364H201.602C202.574 19.6894 203.708 18.9604 205.382 18.9604C205.787 18.9604 206.057 18.9874 206.246 19.0684V22.8484H206.138C203.438 22.4704 201.71 23.7934 201.71 26.7904V33.0004H197.309Z" fill="#0A0D12"/>
<path d="M213.807 37.7794C210 37.7794 207.489 36.2134 207.057 33.3244H211.323C211.566 34.0534 212.295 34.6744 213.753 34.6744C215.616 34.6744 216.399 33.7024 216.399 32.0284V30.6514H216.291C215.481 31.5694 214.428 32.2444 212.754 32.2444C209.649 32.2444 206.76 29.9224 206.76 25.6834C206.76 21.6334 209.136 18.7714 212.565 18.7714C214.401 18.7714 215.643 19.5004 216.453 20.6614H216.507L216.26 19.1764H220.719V31.6504C220.719 33.7294 219.99 35.2414 218.883 36.2404C217.668 37.3204 215.859 37.7794 213.807 37.7794ZM213.78 28.9774C215.697 28.9774 216.588 27.4654 216.588 25.5214C216.588 23.6584 215.616 22.0924 213.78 22.0924C212.133 22.0924 211.053 23.4424 211.053 25.5484C211.053 27.6274 212.133 28.9774 213.78 28.9774Z" fill="#0A0D12"/>
<path d="M223.292 37.5634V34.1344H224.804C226.1 34.1344 226.613 33.6214 226.613 32.6764C226.613 32.0824 226.343 31.2724 225.776 29.8144L221.699 19.1764H226.343L228.206 25.0624C228.638 26.4124 229.07 28.2484 229.07 28.2484H229.124C229.124 28.2484 229.502 26.4124 229.934 25.0624L231.743 19.1764H236.144L231.365 33.1894C230.258 36.4294 228.935 37.5634 226.154 37.5634H223.292Z" fill="#0A0D12"/>
<path d="M127.738 17.2593C126.357 17.2593 125.238 16.1405 125.238 14.7603C125.238 13.3801 126.357 12.2612 127.738 12.2612C129.118 12.2612 130.238 13.3801 130.238 14.7603C130.238 16.1405 129.118 17.2593 127.738 17.2593Z" fill="#0A0D12"/>
<defs>
<filter id="filter0_iii_3046_38805" x="0" y="-3" width="48" height="54" filterUnits="userSpaceOnUse" color-interpolation-filters="sRGB">
<feFlood flood-opacity="0" result="BackgroundImageFix"/>
<feBlend mode="normal" in="SourceGraphic" in2="BackgroundImageFix" result="shape"/>
<feColorMatrix in="SourceAlpha" type="matrix" values="0 0 0 0 0 0 0 0 0 0 0 0 0 0 0 0 0 0 127 0" result="hardAlpha"/>
<feOffset dy="-3"/>
<feGaussianBlur stdDeviation="1.5"/>
<feComposite in2="hardAlpha" operator="arithmetic" k2="-1" k3="1"/>
<feColorMatrix type="matrix" values="0 0 0 0 0 0 0 0 0 0 0 0 0 0 0 0 0 0 0.1 0"/>
<feBlend mode="normal" in2="shape" result="effect1_innerShadow_3046_38805"/>
<feColorMatrix in="SourceAlpha" type="matrix" values="0 0 0 0 0 0 0 0 0 0 0 0 0 0 0 0 0 0 127 0" result="hardAlpha"/>
<feOffset dy="3"/>
<feGaussianBlur stdDeviation="1.5"/>
<feComposite in2="hardAlpha" operator="arithmetic" k2="-1" k3="1"/>
<feColorMatrix type="matrix" values="0 0 0 0 1 0 0 0 0 1 0 0 0 0 1 0 0 0 0.1 0"/>
<feBlend mode="normal" in2="effect1_innerShadow_3046_38805" result="effect2_innerShadow_3046_38805"/>
<feColorMatrix in="SourceAlpha" type="matrix" values="0 0 0 0 0 0 0 0 0 0 0 0 0 0 0 0 0 0 127 0" result="hardAlpha"/>
<feMorphology radius="1" operator="erode" in="SourceAlpha" result="effect3_innerShadow_3046_38805"/>
<feOffset/>
<feComposite in2="hardAlpha" operator="arithmetic" k2="-1" k3="1"/>
<feColorMatrix type="matrix" values="0 0 0 0 0 0 0 0 0 0 0 0 0 0 0 0 0 0 0.2 0"/>
<feBlend mode="normal" in2="effect2_innerShadow_3046_38805" result="effect3_innerShadow_3046_38805"/>
</filter>
<filter id="filter1_d_3046_38805" x="6" y="5.25" width="36" height="42" filterUnits="userSpaceOnUse" color-interpolation-filters="sRGB">
<feFlood flood-opacity="0" result="BackgroundImageFix"/>
<feColorMatrix in="SourceAlpha" type="matrix" values="0 0 0 0 0 0 0 0 0 0 0 0 0 0 0 0 0 0 127 0" result="hardAlpha"/>
<feMorphology radius="1.5" operator="erode" in="SourceAlpha" result="effect1_dropShadow_3046_38805"/>
<feOffset dy="2.25"/>
<feGaussianBlur stdDeviation="2.25"/>
<feComposite in2="hardAlpha" operator="out"/>
<feColorMatrix type="matrix" values="0 0 0 0 0.141176 0 0 0 0 0.141176 0 0 0 0 0.141176 0 0 0 0.1 0"/>
<feBlend mode="normal" in2="BackgroundImageFix" result="effect1_dropShadow_3046_38805"/>
<feBlend mode="normal" in="SourceGraphic" in2="effect1_dropShadow_3046_38805" result="shape"/>
</filter>
<linearGradient id="paint0_linear_3046_38805" x1="24" y1="5.96047e-07" x2="26" y2="48" gradientUnits="userSpaceOnUse">
<stop stop-color="white" stop-opacity="0"/>
<stop offset="1" stop-color="white" stop-opacity="0.12"/>
</linearGradient>
<linearGradient id="paint1_linear_3046_38805" x1="24" y1="9" x2="24" y2="39" gradientUnits="userSpaceOnUse">
<stop stop-color="white" stop-opacity="0.8"/>
<stop offset="1" stop-color="white" stop-opacity="0.5"/>
</linearGradient>
<linearGradient id="paint2_linear_3046_38805" x1="24" y1="0" x2="24" y2="48" gradientUnits="userSpaceOnUse">
<stop stop-color="white" stop-opacity="0.12"/>
<stop offset="1" stop-color="white" stop-opacity="0"/>
</linearGradient>
<clipPath id="clip0_3046_38805">
<rect width="48" height="48" rx="12" fill="white"/>
</clipPath>
</defs>
</svg>
