<svg width="185" height="48" viewBox="0 0 185 48" fill="none" xmlns="http://www.w3.org/2000/svg">
<g filter="url(#filter0_iii_3046_38806)">
<g clip-path="url(#clip0_3046_38806)">
<rect width="48" height="48" rx="12" fill="#175CD3"/>
<rect width="48" height="48" fill="url(#paint0_linear_3046_38806)"/>
<g filter="url(#filter1_d_3046_38806)">
<path d="M30.9974 30.9972C25.1233 36.8714 15.5994 36.8714 9.72526 30.9972" stroke="url(#paint1_linear_3046_38806)" stroke-width="4.75"/>
<path opacity="0.5" d="M25.6794 25.6795C22.7423 28.6166 17.9804 28.6166 15.0433 25.6795" stroke="url(#paint2_linear_3046_38806)" stroke-width="4.75"/>
<path opacity="0.5" d="M17.0026 17.0028C22.8767 11.1286 32.4006 11.1286 38.2747 17.0028" stroke="url(#paint3_linear_3046_38806)" stroke-width="4.75"/>
<path d="M22.3206 22.3205C25.2577 19.3834 30.0196 19.3834 32.9567 22.3205" stroke="url(#paint4_linear_3046_38806)" stroke-width="4.75"/>
</g>
</g>
<rect x="1" y="1" width="46" height="46" rx="11" stroke="url(#paint5_linear_3046_38806)" stroke-width="2"/>
</g>
<path d="M68.154 33.2702C65.49 33.2702 63.465 32.6852 62.079 31.5152C60.693 30.3272 60 28.7792 60 26.8712H64.482C64.518 27.8972 64.869 28.6532 65.535 29.1392C66.201 29.6072 67.11 29.8412 68.262 29.8412C70.53 29.8412 71.664 29.0582 71.664 27.4922C71.664 26.8442 71.457 26.3582 71.043 26.0342C70.629 25.7102 70.062 25.4672 69.342 25.3052C68.622 25.1252 67.794 24.9452 66.858 24.7652C64.86 24.3692 63.285 23.7392 62.133 22.8752C60.999 22.0112 60.432 20.7332 60.432 19.0412C60.432 17.7272 60.747 16.6292 61.377 15.7472C62.025 14.8652 62.925 14.1992 64.077 13.7492C65.247 13.2992 66.597 13.0742 68.127 13.0742C70.629 13.0742 72.546 13.5872 73.878 14.6132C75.228 15.6392 75.912 17.0882 75.93 18.9602H71.475C71.457 18.1502 71.16 17.5292 70.584 17.0972C70.008 16.6472 69.189 16.4222 68.127 16.4222C67.191 16.4222 66.453 16.6112 65.913 16.9892C65.391 17.3492 65.13 17.8532 65.13 18.5012C65.13 19.0772 65.301 19.5182 65.643 19.8242C66.003 20.1302 66.516 20.3642 67.182 20.5262C67.848 20.6702 68.649 20.8232 69.585 20.9852C70.863 21.2012 72.015 21.5252 73.041 21.9572C74.067 22.3712 74.877 22.9832 75.471 23.7932C76.065 24.6032 76.362 25.7102 76.362 27.1142C76.362 28.5002 76.02 29.6522 75.336 30.5702C74.652 31.4882 73.689 32.1722 72.447 32.6222C71.223 33.0542 69.792 33.2702 68.154 33.2702Z" fill="#0A0D12"/>
<path d="M84.8818 33.2702C82.5238 33.2702 80.7688 32.5952 79.6168 31.2452C78.4648 29.8952 77.8888 28.0952 77.8888 25.8452V25.7642C77.8888 23.2082 78.5278 21.3182 79.8058 20.0942C81.0838 18.8522 82.7758 18.2312 84.8818 18.2312C87.0058 18.2312 88.7068 18.8522 89.9848 20.0942C91.2808 21.3182 91.9288 23.2082 91.9288 25.7642V25.8452C91.9108 28.0952 91.3258 29.8952 90.1738 31.2452C89.0218 32.5952 87.2578 33.2702 84.8818 33.2702ZM84.8818 29.9222C85.7998 29.9222 86.4928 29.6702 86.9608 29.1662C87.4468 28.6622 87.6898 27.9692 87.6898 27.0872V24.4952C87.6898 23.5952 87.4378 22.8932 86.9338 22.3892C86.4478 21.8672 85.7638 21.6062 84.8818 21.6062C84.0178 21.6062 83.3338 21.8672 82.8298 22.3892C82.3438 22.8932 82.1008 23.5952 82.1008 24.4952V27.0872C82.1008 27.9692 82.3348 28.6622 82.8028 29.1662C83.2888 29.6702 83.9818 29.9222 84.8818 29.9222Z" fill="#0A0D12"/>
<path d="M94.1932 33.0002V18.5012H98.0542L98.3512 20.8772H98.5942C98.9002 20.0852 99.4312 19.4462 100.187 18.9602C100.943 18.4742 101.843 18.2312 102.887 18.2312C104.435 18.2312 105.659 18.7082 106.559 19.6622C107.459 20.5982 107.909 22.0832 107.909 24.1172V33.0002H103.778V24.6572C103.778 23.4872 103.544 22.6862 103.076 22.2542C102.608 21.8222 101.978 21.6062 101.186 21.6062C100.25 21.6062 99.5392 21.9122 99.0532 22.5242C98.5852 23.1362 98.3512 23.9462 98.3512 24.9542V33.0002H94.1932Z" fill="#0A0D12"/>
<path d="M111.786 31.2452C112.938 32.5952 114.693 33.2702 117.051 33.2702V29.9222C116.151 29.9222 115.458 29.6702 114.972 29.1662C114.504 28.6622 114.27 27.9692 114.27 27.0872V24.4952C114.27 23.5952 114.513 22.8932 114.999 22.3892C115.503 21.8672 116.187 21.6062 117.051 21.6062V18.2312C114.945 18.2312 113.253 18.8522 111.975 20.0942C110.697 21.3182 110.058 23.2082 110.058 25.7642V25.8452C110.058 28.0952 110.634 29.8952 111.786 31.2452Z" fill="#0A0D12"/>
<path d="M129.361 33.0004V18.5014H133.222L133.519 20.9044H133.762C134.086 20.0044 134.518 19.3474 135.058 18.9334C135.598 18.5014 136.372 18.2854 137.38 18.2854H138.676V22.4974H136.813C135.625 22.4974 134.779 22.8034 134.275 23.4154C133.771 24.0094 133.519 24.8104 133.519 25.8184V33.0004H129.361Z" fill="#0A0D12"/>
<path d="M146.629 33.2704C144.271 33.2704 142.516 32.5954 141.364 31.2454C140.212 29.8954 139.636 28.0954 139.636 25.8454V25.7644C139.636 23.2084 140.275 21.3184 141.553 20.0944C142.831 18.8524 144.523 18.2314 146.629 18.2314C148.753 18.2314 150.454 18.8524 151.732 20.0944C153.028 21.3184 153.676 23.2084 153.676 25.7644V25.8454C153.658 28.0954 153.073 29.8954 151.921 31.2454C150.769 32.5954 149.005 33.2704 146.629 33.2704ZM146.629 29.9224C147.547 29.9224 148.24 29.6704 148.708 29.1664C149.194 28.6624 149.437 27.9694 149.437 27.0874V24.4954C149.437 23.5954 149.185 22.8934 148.681 22.3894C148.195 21.8674 147.511 21.6064 146.629 21.6064C145.765 21.6064 145.081 21.8674 144.577 22.3894C144.091 22.8934 143.848 23.5954 143.848 24.4954V27.0874C143.848 27.9694 144.082 28.6624 144.55 29.1664C145.036 29.6704 145.729 29.9224 146.629 29.9224Z" fill="#0A0D12"/>
<path d="M160.585 33.2704C158.983 33.2704 157.786 32.7484 156.994 31.7044C156.202 30.6424 155.806 29.2474 155.806 27.5194V18.5014H159.937V26.9254C159.937 28.0774 160.162 28.8694 160.612 29.3014C161.08 29.7154 161.701 29.9224 162.475 29.9224C163.393 29.9224 164.086 29.6164 164.554 29.0044C165.022 28.3924 165.256 27.5914 165.256 26.6014V18.5014H169.387V33.0004H165.526L165.229 30.6244H165.013C164.689 31.4164 164.131 32.0554 163.339 32.5414C162.565 33.0274 161.647 33.2704 160.585 33.2704Z" fill="#0A0D12"/>
<path d="M177.806 33.2704C175.736 33.2704 174.152 32.8204 173.054 31.9204C171.974 31.0204 171.443 29.8504 171.461 28.4104H175.43C175.465 29.1304 175.709 29.6434 176.159 29.9494C176.627 30.2554 177.221 30.4084 177.941 30.4084C178.661 30.4084 179.174 30.2734 179.48 30.0034C179.804 29.7154 179.966 29.3734 179.966 28.9774C179.966 28.3474 179.741 27.9334 179.291 27.7354C178.841 27.5194 178.139 27.3394 177.185 27.1954C176.321 27.0694 175.475 26.8714 174.647 26.6014C173.819 26.3314 173.135 25.9084 172.595 25.3324C172.073 24.7384 171.812 23.9284 171.812 22.9024C171.812 21.8944 172.064 21.0484 172.568 20.3644C173.09 19.6624 173.801 19.1314 174.701 18.7714C175.601 18.4114 176.636 18.2314 177.806 18.2314C179.588 18.2314 181.028 18.6274 182.126 19.4194C183.242 20.2114 183.818 21.3274 183.854 22.7674L179.939 22.7404C179.939 22.1824 179.741 21.7594 179.345 21.4714C178.967 21.1654 178.454 21.0124 177.806 21.0124C177.176 21.0124 176.699 21.1384 176.375 21.3904C176.051 21.6424 175.889 21.9754 175.889 22.3894C175.889 22.9654 176.15 23.3434 176.672 23.5234C177.212 23.7034 177.887 23.8564 178.697 23.9824C179.381 24.0724 180.047 24.1984 180.695 24.3604C181.342 24.5044 181.928 24.7384 182.45 25.0624C182.99 25.3864 183.413 25.8364 183.719 26.4124C184.025 26.9704 184.178 27.7084 184.178 28.6264C184.178 30.0484 183.62 31.1824 182.504 32.0284C181.406 32.8564 179.84 33.2704 177.806 33.2704Z" fill="#0A0D12"/>
<path d="M125.154 20.0947C123.876 18.8527 122.175 18.2317 120.051 18.2317V21.6067C120.933 21.6067 121.617 21.8677 122.103 22.3897C122.607 22.8937 122.859 23.5957 122.859 24.4957V27.0877C122.859 27.9697 122.616 28.6627 122.13 29.1667C121.662 29.6707 120.969 29.9227 120.051 29.9227V33.2707C122.427 33.2707 124.191 32.5957 125.343 31.2457C126.495 29.8957 127.08 28.0957 127.098 25.8457V25.7647C127.098 23.2087 126.45 21.3187 125.154 20.0947Z" fill="#0A0D12"/>
<defs>
<filter id="filter0_iii_3046_38806" x="0" y="-3" width="48" height="54" filterUnits="userSpaceOnUse" color-interpolation-filters="sRGB">
<feFlood flood-opacity="0" result="BackgroundImageFix"/>
<feBlend mode="normal" in="SourceGraphic" in2="BackgroundImageFix" result="shape"/>
<feColorMatrix in="SourceAlpha" type="matrix" values="0 0 0 0 0 0 0 0 0 0 0 0 0 0 0 0 0 0 127 0" result="hardAlpha"/>
<feOffset dy="-3"/>
<feGaussianBlur stdDeviation="1.5"/>
<feComposite in2="hardAlpha" operator="arithmetic" k2="-1" k3="1"/>
<feColorMatrix type="matrix" values="0 0 0 0 0 0 0 0 0 0 0 0 0 0 0 0 0 0 0.1 0"/>
<feBlend mode="normal" in2="shape" result="effect1_innerShadow_3046_38806"/>
<feColorMatrix in="SourceAlpha" type="matrix" values="0 0 0 0 0 0 0 0 0 0 0 0 0 0 0 0 0 0 127 0" result="hardAlpha"/>
<feOffset dy="3"/>
<feGaussianBlur stdDeviation="1.5"/>
<feComposite in2="hardAlpha" operator="arithmetic" k2="-1" k3="1"/>
<feColorMatrix type="matrix" values="0 0 0 0 1 0 0 0 0 1 0 0 0 0 1 0 0 0 0.1 0"/>
<feBlend mode="normal" in2="effect1_innerShadow_3046_38806" result="effect2_innerShadow_3046_38806"/>
<feColorMatrix in="SourceAlpha" type="matrix" values="0 0 0 0 0 0 0 0 0 0 0 0 0 0 0 0 0 0 127 0" result="hardAlpha"/>
<feMorphology radius="1" operator="erode" in="SourceAlpha" result="effect3_innerShadow_3046_38806"/>
<feOffset/>
<feComposite in2="hardAlpha" operator="arithmetic" k2="-1" k3="1"/>
<feColorMatrix type="matrix" values="0 0 0 0 0 0 0 0 0 0 0 0 0 0 0 0 0 0 0.2 0"/>
<feBlend mode="normal" in2="effect2_innerShadow_3046_38806" result="effect3_innerShadow_3046_38806"/>
</filter>
<filter id="filter1_d_3046_38806" x="4.20833" y="4.20833" width="39.5833" height="44.3333" filterUnits="userSpaceOnUse" color-interpolation-filters="sRGB">
<feFlood flood-opacity="0" result="BackgroundImageFix"/>
<feColorMatrix in="SourceAlpha" type="matrix" values="0 0 0 0 0 0 0 0 0 0 0 0 0 0 0 0 0 0 127 0" result="hardAlpha"/>
<feMorphology radius="1.58333" operator="erode" in="SourceAlpha" result="effect1_dropShadow_3046_38806"/>
<feOffset dy="2.375"/>
<feGaussianBlur stdDeviation="2.375"/>
<feComposite in2="hardAlpha" operator="out"/>
<feColorMatrix type="matrix" values="0 0 0 0 0.141176 0 0 0 0 0.141176 0 0 0 0 0.141176 0 0 0 0.1 0"/>
<feBlend mode="normal" in2="BackgroundImageFix" result="effect1_dropShadow_3046_38806"/>
<feBlend mode="normal" in="SourceGraphic" in2="effect1_dropShadow_3046_38806" result="shape"/>
</filter>
<linearGradient id="paint0_linear_3046_38806" x1="24" y1="5.96047e-07" x2="26" y2="48" gradientUnits="userSpaceOnUse">
<stop stop-color="white" stop-opacity="0"/>
<stop offset="1" stop-color="white" stop-opacity="0.12"/>
</linearGradient>
<linearGradient id="paint1_linear_3046_38806" x1="15.0433" y1="36.3153" x2="25.6794" y2="25.6792" gradientUnits="userSpaceOnUse">
<stop stop-color="white" stop-opacity="0.8"/>
<stop offset="1" stop-color="white" stop-opacity="0.5"/>
</linearGradient>
<linearGradient id="paint2_linear_3046_38806" x1="17.7023" y1="28.3385" x2="23.0203" y2="23.0205" gradientUnits="userSpaceOnUse">
<stop stop-color="white" stop-opacity="0.8"/>
<stop offset="1" stop-color="white" stop-opacity="0.5"/>
</linearGradient>
<linearGradient id="paint3_linear_3046_38806" x1="32.9567" y1="11.6847" x2="22.3206" y2="22.3208" gradientUnits="userSpaceOnUse">
<stop stop-color="white" stop-opacity="0.8"/>
<stop offset="1" stop-color="white" stop-opacity="0.5"/>
</linearGradient>
<linearGradient id="paint4_linear_3046_38806" x1="30.2977" y1="19.6615" x2="24.9797" y2="24.9795" gradientUnits="userSpaceOnUse">
<stop stop-color="white" stop-opacity="0.8"/>
<stop offset="1" stop-color="white" stop-opacity="0.5"/>
</linearGradient>
<linearGradient id="paint5_linear_3046_38806" x1="24" y1="0" x2="24" y2="48" gradientUnits="userSpaceOnUse">
<stop stop-color="white" stop-opacity="0.12"/>
<stop offset="1" stop-color="white" stop-opacity="0"/>
</linearGradient>
<clipPath id="clip0_3046_38806">
<rect width="48" height="48" rx="12" fill="white"/>
</clipPath>
</defs>
</svg>
