<svg width="208" height="48" viewBox="0 0 208 48" fill="none" xmlns="http://www.w3.org/2000/svg">
<g filter="url(#filter0_iii_3046_38809)">
<g clip-path="url(#clip0_3046_38809)">
<rect width="48" height="48" rx="12" fill="#444CE7"/>
<rect width="48" height="48" fill="url(#paint0_linear_3046_38809)"/>
<g filter="url(#filter1_d_3046_38809)">
<path d="M32.8633 33.6032C32.4879 34.3808 31.7006 34.875 30.8371 34.875H18.6064C16.9419 34.875 15.8536 33.1304 16.5856 31.6355L25.0324 14.3855C25.4102 13.6141 26.1942 13.125 27.0531 13.125L39.1647 13.125C40.8236 13.125 41.9121 14.8592 41.1909 16.3532L32.8633 33.6032Z" fill="url(#paint1_linear_3046_38809)"/>
<path opacity="0.5" d="M11.1529 26.0549C11.9413 27.7818 14.3821 27.8164 15.2192 26.1126L20.007 16.3671C20.7415 14.8721 19.6533 13.125 17.9875 13.125L8.75066 13.125C7.11267 13.125 6.02362 14.8193 6.70387 16.3094L11.1529 26.0549Z" fill="url(#paint2_linear_3046_38809)"/>
</g>
</g>
<rect x="1" y="1" width="46" height="46" rx="11" stroke="url(#paint3_linear_3046_38809)" stroke-width="2"/>
</g>
<path d="M80.0653 16.844C80.5133 17.1987 81.2226 17.376 82.1933 17.376C83.1453 17.376 83.8453 17.1987 84.2933 16.844C84.7413 16.4707 84.9653 15.892 84.9653 15.108C84.9653 14.3053 84.7413 13.7267 84.2933 13.372C83.8453 12.9987 83.1453 12.812 82.1933 12.812C81.2226 12.812 80.5133 12.9987 80.0653 13.372C79.6359 13.7267 79.4213 14.3053 79.4213 15.108C79.4213 15.892 79.6359 16.4707 80.0653 16.844Z" fill="#0A0D12"/>
<path d="M72.236 33L78.788 14.52H73.888L70.444 25.748L69.464 29.332L68.456 25.692L65.068 14.52H60L66.58 33H72.236Z" fill="#0A0D12"/>
<path d="M93.0017 33.28C91.6017 33.28 90.2951 33.056 89.0817 32.608C87.8871 32.1413 86.8977 31.4787 86.1137 30.62L88.3537 27.988C88.8204 28.5853 89.4364 29.0893 90.2017 29.5C90.9857 29.892 91.8537 30.088 92.8057 30.088C93.3844 30.088 93.8604 30.004 94.2337 29.836C94.6071 29.668 94.7937 29.4067 94.7937 29.052C94.7937 28.7907 94.7004 28.5853 94.5137 28.436C94.327 28.268 93.9537 28.128 93.3937 28.016L91.4337 27.624C89.6791 27.2693 88.4284 26.7467 87.6817 26.056C86.9537 25.3467 86.5897 24.4227 86.5897 23.284C86.5897 22.5187 86.8231 21.7907 87.2897 21.1C87.7564 20.3907 88.4751 19.8213 89.4457 19.392C90.4164 18.944 91.6577 18.72 93.1697 18.72C94.5884 18.72 95.8391 18.9253 96.9217 19.336C98.0044 19.7467 98.8631 20.344 99.4977 21.128L97.2297 23.704C96.7817 23.144 96.2031 22.7053 95.4937 22.388C94.7844 22.0707 94.0751 21.912 93.3657 21.912C92.9177 21.912 92.5351 21.9587 92.2177 22.052C91.9191 22.1267 91.6951 22.2387 91.5457 22.388C91.3964 22.5373 91.3217 22.724 91.3217 22.948C91.3217 23.1907 91.4337 23.4053 91.6577 23.592C91.9004 23.76 92.3391 23.9093 92.9737 24.04L95.5217 24.544C96.9591 24.8053 97.9951 25.2813 98.6297 25.972C99.2644 26.6627 99.5817 27.4933 99.5817 28.464C99.5817 29.3787 99.3391 30.2 98.8537 30.928C98.3684 31.656 97.6404 32.2347 96.6697 32.664C95.6991 33.0747 94.4764 33.28 93.0017 33.28Z" fill="#0A0D12"/>
<path d="M101.463 16.844C101.911 17.1987 102.621 17.376 103.591 17.376C104.543 17.376 105.243 17.1987 105.691 16.844C106.139 16.4707 106.363 15.892 106.363 15.108C106.363 14.3053 106.139 13.7267 105.691 13.372C105.243 12.9987 104.543 12.812 103.591 12.812C102.621 12.812 101.911 12.9987 101.463 13.372C101.034 13.7267 100.819 14.3053 100.819 15.108C100.819 15.892 101.034 16.4707 101.463 16.844Z" fill="#0A0D12"/>
<path fill-rule="evenodd" clip-rule="evenodd" d="M115.184 18.72C116.659 18.72 117.947 19.0093 119.048 19.588C120.168 20.148 121.036 20.9787 121.652 22.08C122.287 23.1627 122.604 24.4693 122.604 26C122.604 27.5307 122.287 28.8467 121.652 29.948C121.036 31.0307 120.168 31.8613 119.048 32.44C117.947 33 116.659 33.28 115.184 33.28C113.747 33.28 112.468 33 111.348 32.44C110.228 31.8613 109.351 31.0307 108.716 29.948C108.1 28.8467 107.792 27.5307 107.792 26C107.792 24.4693 108.1 23.1627 108.716 22.08C109.351 20.9787 110.228 20.148 111.348 19.588C112.468 19.0093 113.747 18.72 115.184 18.72ZM115.184 22.108C114.643 22.108 114.176 22.2387 113.784 22.5C113.392 22.7613 113.093 23.1813 112.888 23.76C112.683 24.3387 112.58 25.0853 112.58 26C112.58 26.9147 112.683 27.6613 112.888 28.24C113.093 28.8 113.392 29.22 113.784 29.5C114.176 29.7613 114.643 29.892 115.184 29.892C115.744 29.892 116.22 29.7613 116.612 29.5C117.004 29.22 117.303 28.8 117.508 28.24C117.713 27.6613 117.816 26.9147 117.816 26C117.816 25.0853 117.713 24.3387 117.508 23.76C117.303 23.1813 117.004 22.7613 116.612 22.5C116.22 22.2387 115.744 22.108 115.184 22.108Z" fill="#0A0D12"/>
<path d="M128.844 21.7947L128.698 19H124.442V33H129.202V25.58C129.202 24.796 129.314 24.1707 129.538 23.704C129.762 23.2373 130.07 22.9013 130.462 22.696C130.854 22.472 131.274 22.36 131.722 22.36C132.3 22.36 132.776 22.5467 133.15 22.92C133.523 23.2933 133.71 23.9653 133.71 24.936V33H138.47V23.676C138.47 22.5747 138.264 21.66 137.854 20.932C137.443 20.204 136.874 19.6533 136.146 19.28C135.436 18.9067 134.596 18.72 133.626 18.72C132.73 18.72 131.918 18.8973 131.19 19.252C130.48 19.588 129.883 20.092 129.398 20.764C129.184 21.0722 128.999 21.4158 128.844 21.7947Z" fill="#0A0D12"/>
<path d="M156.843 29.332L159.223 19H164.207L159.979 33H154.267L151.719 24.404L149.255 33H143.571L139.315 19H144.327L146.679 29.332L149.423 19H154.127L156.843 29.332Z" fill="#0A0D12"/>
<path fill-rule="evenodd" clip-rule="evenodd" d="M175.426 19.588C174.325 19.0093 173.037 18.72 171.562 18.72C170.125 18.72 168.846 19.0093 167.726 19.588C166.606 20.148 165.729 20.9787 165.094 22.08C164.478 23.1627 164.17 24.4693 164.17 26C164.17 27.5307 164.478 28.8467 165.094 29.948C165.729 31.0307 166.606 31.8613 167.726 32.44C168.846 33 170.125 33.28 171.562 33.28C173.037 33.28 174.325 33 175.426 32.44C176.546 31.8613 177.414 31.0307 178.03 29.948C178.665 28.8467 178.982 27.5307 178.982 26C178.982 24.4693 178.665 23.1627 178.03 22.08C177.414 20.9787 176.546 20.148 175.426 19.588ZM170.162 22.5C170.554 22.2387 171.021 22.108 171.562 22.108C172.122 22.108 172.598 22.2387 172.99 22.5C173.382 22.7613 173.681 23.1813 173.886 23.76C174.092 24.3387 174.194 25.0853 174.194 26C174.194 26.9147 174.092 27.6613 173.886 28.24C173.681 28.8 173.382 29.22 172.99 29.5C172.598 29.7613 172.122 29.892 171.562 29.892C171.021 29.892 170.554 29.7613 170.162 29.5C169.77 29.22 169.472 28.8 169.266 28.24C169.061 27.6613 168.958 26.9147 168.958 26C168.958 25.0853 169.061 24.3387 169.266 23.76C169.472 23.1813 169.77 22.7613 170.162 22.5Z" fill="#0A0D12"/>
<path d="M186 24.152C185.72 24.6187 185.58 25.216 185.58 25.944V33H180.82V19H185.02L185.216 22.024C185.571 20.9787 186.093 20.1667 186.784 19.588C187.493 19.0093 188.389 18.72 189.472 18.72C189.827 18.72 190.125 18.748 190.368 18.804C190.629 18.86 190.835 18.9347 190.984 19.028L190.508 22.948C190.321 22.8733 190.079 22.8173 189.78 22.78C189.5 22.724 189.155 22.696 188.744 22.696C188.184 22.696 187.661 22.8173 187.176 23.06C186.691 23.3027 186.299 23.6667 186 24.152Z" fill="#0A0D12"/>
<path d="M202.227 24.5L207.383 19H202.091L196.771 24.8825V13.064H192.011V33H196.771V29.7722L199.024 27.2515L202.427 33H207.691L202.227 24.5Z" fill="#0A0D12"/>
<path d="M84.5733 33V19H79.8133V33H84.5733Z" fill="#0A0D12"/>
<path d="M105.971 33V19H101.211V33H105.971Z" fill="#0A0D12"/>
<defs>
<filter id="filter0_iii_3046_38809" x="0" y="-3" width="48" height="54" filterUnits="userSpaceOnUse" color-interpolation-filters="sRGB">
<feFlood flood-opacity="0" result="BackgroundImageFix"/>
<feBlend mode="normal" in="SourceGraphic" in2="BackgroundImageFix" result="shape"/>
<feColorMatrix in="SourceAlpha" type="matrix" values="0 0 0 0 0 0 0 0 0 0 0 0 0 0 0 0 0 0 127 0" result="hardAlpha"/>
<feOffset dy="-3"/>
<feGaussianBlur stdDeviation="1.5"/>
<feComposite in2="hardAlpha" operator="arithmetic" k2="-1" k3="1"/>
<feColorMatrix type="matrix" values="0 0 0 0 0 0 0 0 0 0 0 0 0 0 0 0 0 0 0.1 0"/>
<feBlend mode="normal" in2="shape" result="effect1_innerShadow_3046_38809"/>
<feColorMatrix in="SourceAlpha" type="matrix" values="0 0 0 0 0 0 0 0 0 0 0 0 0 0 0 0 0 0 127 0" result="hardAlpha"/>
<feOffset dy="3"/>
<feGaussianBlur stdDeviation="1.5"/>
<feComposite in2="hardAlpha" operator="arithmetic" k2="-1" k3="1"/>
<feColorMatrix type="matrix" values="0 0 0 0 1 0 0 0 0 1 0 0 0 0 1 0 0 0 0.1 0"/>
<feBlend mode="normal" in2="effect1_innerShadow_3046_38809" result="effect2_innerShadow_3046_38809"/>
<feColorMatrix in="SourceAlpha" type="matrix" values="0 0 0 0 0 0 0 0 0 0 0 0 0 0 0 0 0 0 127 0" result="hardAlpha"/>
<feMorphology radius="1" operator="erode" in="SourceAlpha" result="effect3_innerShadow_3046_38809"/>
<feOffset/>
<feComposite in2="hardAlpha" operator="arithmetic" k2="-1" k3="1"/>
<feColorMatrix type="matrix" values="0 0 0 0 0 0 0 0 0 0 0 0 0 0 0 0 0 0 0.2 0"/>
<feBlend mode="normal" in2="effect2_innerShadow_3046_38809" result="effect3_innerShadow_3046_38809"/>
</filter>
<filter id="filter1_d_3046_38809" x="3" y="5.25" width="42" height="42" filterUnits="userSpaceOnUse" color-interpolation-filters="sRGB">
<feFlood flood-opacity="0" result="BackgroundImageFix"/>
<feColorMatrix in="SourceAlpha" type="matrix" values="0 0 0 0 0 0 0 0 0 0 0 0 0 0 0 0 0 0 127 0" result="hardAlpha"/>
<feMorphology radius="1.5" operator="erode" in="SourceAlpha" result="effect1_dropShadow_3046_38809"/>
<feOffset dy="2.25"/>
<feGaussianBlur stdDeviation="2.25"/>
<feComposite in2="hardAlpha" operator="out"/>
<feColorMatrix type="matrix" values="0 0 0 0 0.141176 0 0 0 0 0.141176 0 0 0 0 0.141176 0 0 0 0.1 0"/>
<feBlend mode="normal" in2="BackgroundImageFix" result="effect1_dropShadow_3046_38809"/>
<feBlend mode="normal" in="SourceGraphic" in2="effect1_dropShadow_3046_38809" result="shape"/>
</filter>
<linearGradient id="paint0_linear_3046_38809" x1="24" y1="5.96047e-07" x2="26" y2="48" gradientUnits="userSpaceOnUse">
<stop stop-color="white" stop-opacity="0"/>
<stop offset="1" stop-color="white" stop-opacity="0.12"/>
</linearGradient>
<linearGradient id="paint1_linear_3046_38809" x1="28.8855" y1="13.125" x2="28.8855" y2="34.875" gradientUnits="userSpaceOnUse">
<stop stop-color="white" stop-opacity="0.8"/>
<stop offset="1" stop-color="white" stop-opacity="0.5"/>
</linearGradient>
<linearGradient id="paint2_linear_3046_38809" x1="13.3692" y1="13.125" x2="13.3692" y2="27.3705" gradientUnits="userSpaceOnUse">
<stop stop-color="white" stop-opacity="0.8"/>
<stop offset="1" stop-color="white" stop-opacity="0.5"/>
</linearGradient>
<linearGradient id="paint3_linear_3046_38809" x1="24" y1="0" x2="24" y2="48" gradientUnits="userSpaceOnUse">
<stop stop-color="white" stop-opacity="0.12"/>
<stop offset="1" stop-color="white" stop-opacity="0"/>
</linearGradient>
<clipPath id="clip0_3046_38809">
<rect width="48" height="48" rx="12" fill="white"/>
</clipPath>
</defs>
</svg>
