<svg width="181" height="48" viewBox="0 0 181 48" fill="none" xmlns="http://www.w3.org/2000/svg">
<g filter="url(#filter0_iii_3046_38802)">
<g clip-path="url(#clip0_3046_38802)">
<rect width="48" height="48" rx="12" fill="#155EEF"/>
<rect width="48" height="48" fill="url(#paint0_linear_3046_38802)"/>
<g filter="url(#filter1_d_3046_38802)">
<path d="M18.2597 10.1418C20.0796 9.38803 22.0302 9 24 9V16.5C23.0151 16.5 22.0398 16.694 21.1299 17.0709C20.2199 17.4478 19.3931 18.0003 18.6967 18.6967C18.0003 19.3931 17.4478 20.2199 17.0709 21.1299C16.694 22.0398 16.5 23.0151 16.5 24H9C9 22.0302 9.38803 20.0796 10.1418 18.2597C10.8957 16.4398 12.0005 14.7863 13.3934 13.3934C14.7863 12.0005 16.4398 10.8957 18.2597 10.1418Z" fill="url(#paint1_linear_3046_38802)"/>
<path opacity="0.5" d="M9 24C9 25.9698 9.38803 27.9204 10.1418 29.7403C10.8957 31.5602 12.0005 33.2137 13.3934 34.6066C14.7863 35.9995 16.4398 37.1043 18.2597 37.8582C20.0796 38.612 22.0302 39 24 39C25.9698 39 27.9204 38.612 29.7403 37.8582C31.5602 37.1043 33.2137 35.9995 34.6066 34.6066C35.9995 33.2137 37.1043 31.5602 37.8582 29.7403C38.612 27.9204 39 25.9698 39 24H31.5C31.5 24.9849 31.306 25.9602 30.9291 26.8701C30.5522 27.7801 29.9997 28.6069 29.3033 29.3033C28.6069 29.9997 27.7801 30.5522 26.8701 30.9291C25.9602 31.306 24.9849 31.5 24 31.5C23.0151 31.5 22.0398 31.306 21.1299 30.9291C20.2199 30.5522 19.3931 29.9997 18.6967 29.3033C18.0003 28.6069 17.4478 27.7801 17.0709 26.8701C16.694 25.9602 16.5 24.9849 16.5 24H9Z" fill="url(#paint2_linear_3046_38802)"/>
<path opacity="0.5" d="M23.9993 19.2271C21.3634 19.2271 19.2266 21.3639 19.2266 23.9998H28.772C28.772 21.3639 26.6352 19.2271 23.9993 19.2271Z" fill="url(#paint3_linear_3046_38802)"/>
<path d="M23.9993 28.7729C21.3634 28.7729 19.2266 26.6361 19.2266 24.0002H28.772C28.772 26.6361 26.6352 28.7729 23.9993 28.7729Z" fill="url(#paint4_linear_3046_38802)"/>
</g>
</g>
<rect x="1" y="1" width="46" height="46" rx="11" stroke="url(#paint5_linear_3046_38802)" stroke-width="2"/>
</g>
<path d="M65.8857 32.5138C64.4817 31.9198 63.4017 31.0288 62.6457 29.8678C61.8897 28.7338 61.5117 27.3568 61.5117 25.7638H66.2367C66.2637 26.9518 66.6687 27.8968 67.4787 28.5448C68.2617 29.2198 69.3687 29.5438 70.7727 29.5438C72.1227 29.5438 73.2027 29.3008 73.9587 28.7878C74.7147 28.2748 75.0927 27.5728 75.0927 26.6818C75.0927 26.0608 74.8767 25.5748 74.4447 25.2238C74.0127 24.8998 73.4997 24.6568 72.8517 24.4948C72.2037 24.3598 71.3127 24.1978 70.1247 24.0358C68.4507 23.8198 67.0737 23.5768 66.0207 23.2528C64.9407 22.9558 64.0227 22.3888 63.2667 21.5248C62.5107 20.6608 62.1327 19.4458 62.1327 17.8258C62.1327 16.5028 62.4567 15.3418 63.1587 14.3428C63.8337 13.3438 64.8057 12.5878 66.0747 12.0478C67.3167 11.5078 68.8017 11.2378 70.5297 11.2378C72.2037 11.2378 73.7157 11.5348 75.0387 12.1018C76.3347 12.6958 77.3607 13.5058 78.1167 14.5588C78.8457 15.6118 79.2237 16.8538 79.2237 18.2578H74.5797C74.4717 17.2858 74.0667 16.5028 73.3647 15.9628C72.6627 15.4228 71.6907 15.1258 70.4487 15.1258C69.1527 15.1258 68.1807 15.3688 67.5057 15.8278C66.8037 16.2868 66.4797 16.9348 66.4797 17.7718C66.4797 18.4198 66.6957 18.9328 67.1277 19.2568C67.5597 19.6078 68.0997 19.8508 68.7477 19.9858C69.3957 20.1478 70.2867 20.2828 71.4747 20.4178C73.1487 20.6338 74.5257 20.9038 75.5787 21.2008C76.6317 21.4978 77.5497 22.0648 78.3057 22.9288C79.0617 23.7928 79.4667 25.0078 79.4667 26.6278C79.4667 27.9778 79.1157 29.1388 78.4137 30.1648C77.7117 31.1908 76.6857 32.0008 75.3627 32.5678C74.0397 33.1618 72.4737 33.4318 70.6647 33.4318C68.8557 33.4318 67.2627 33.1348 65.8857 32.5138Z" fill="#0A0D12"/>
<path d="M84.417 32.4868C83.283 31.8388 82.419 30.9478 81.798 29.8138C81.177 28.6798 80.88 27.4108 80.88 25.9528C80.88 24.5218 81.177 23.2528 81.798 22.1188C82.419 20.9848 83.283 20.1208 84.417 19.4728C85.524 18.8518 86.793 18.5278 88.224 18.5278C89.466 18.5278 90.573 18.8518 91.572 19.4458C92.571 20.0398 93.354 20.9038 93.948 22.0108C94.515 23.1448 94.812 24.4138 94.812 25.8718V27.1678H84.957C85.038 28.1128 85.362 28.8418 85.902 29.3818C86.442 29.9218 87.225 30.1648 88.251 30.1648C88.926 30.1648 89.493 30.0028 89.925 29.6788C90.357 29.3548 90.627 28.9498 90.735 28.4368H94.731C94.515 29.9488 93.786 31.1638 92.598 32.0818C91.41 32.9998 89.952 33.4318 88.224 33.4318C86.793 33.4318 85.524 33.1348 84.417 32.4868ZM90.789 24.7108C90.735 23.9008 90.492 23.2528 90.006 22.7398C89.52 22.2538 88.872 21.9838 88.062 21.9838C87.144 21.9838 86.442 22.2268 85.929 22.7128C85.416 23.1988 85.092 23.8738 84.984 24.7108H90.789Z" fill="#0A0D12"/>
<path d="M98.5758 37.6438C97.3878 36.8338 96.7398 35.6188 96.6048 33.9988H100.628C100.682 34.6198 101.006 35.0788 101.546 35.3758C102.086 35.6728 102.788 35.8078 103.679 35.8078C104.759 35.8078 105.569 35.5108 106.109 34.8898C106.649 34.2958 106.892 33.3508 106.892 32.0548V31.0558C105.893 32.4058 104.327 33.0808 102.194 33.0808C100.979 33.0808 99.9258 32.8108 99.0078 32.2168C98.0898 31.6498 97.3878 30.8398 96.9018 29.7598C96.3888 28.6798 96.1458 27.4378 96.1458 26.0068C96.1458 24.5488 96.3888 23.2528 96.9018 22.1188C97.3878 20.9848 98.1168 20.1208 99.0348 19.4728C99.9528 18.8518 101.006 18.5278 102.194 18.5278C104.327 18.5278 105.893 19.2838 106.892 20.7418V19.1998H110.915V32.0548C110.915 36.5908 108.431 38.8318 103.49 38.8318C101.384 38.8318 99.7368 38.4538 98.5758 37.6438ZM105.974 28.7068C106.595 27.9778 106.919 27.0328 106.919 25.8448C106.919 24.6838 106.595 23.7118 105.974 22.9558C105.326 22.1998 104.516 21.8218 103.544 21.8218C102.545 21.8218 101.735 22.1998 101.087 22.9558C100.439 23.7118 100.142 24.6838 100.142 25.8448C100.142 27.0058 100.439 27.9508 101.087 28.6798C101.708 29.4358 102.518 29.7868 103.544 29.7868C104.516 29.7868 105.326 29.4358 105.974 28.7068Z" fill="#0A0D12"/>
<path d="M113.103 19.1998H117.099V20.9848C117.585 20.2288 118.206 19.6078 119.016 19.1758C119.826 18.7438 120.771 18.5278 121.851 18.5278C124.065 18.5278 125.577 19.4188 126.36 21.2008C127.629 19.4188 129.438 18.5278 131.814 18.5278C135.297 18.5278 137.052 20.7148 137.052 25.0618V32.9998H132.975V25.2778C132.975 24.2518 132.732 23.4688 132.246 22.8748C131.76 22.2808 131.085 21.9838 130.221 21.9838C129.249 21.9838 128.466 22.3348 127.899 23.0368C127.332 23.7388 127.062 24.6568 127.062 25.8178V32.9998H123.012V25.2778C123.012 24.2518 122.769 23.4688 122.283 22.8748C121.797 22.2808 121.122 21.9838 120.258 21.9838C119.286 21.9838 118.503 22.3348 117.936 23.0368C117.369 23.7388 117.099 24.6568 117.099 25.8178V32.9998H113.103V19.1998Z" fill="#0A0D12"/>
<path d="M142.066 32.4868C140.932 31.8388 140.068 30.9478 139.447 29.8138C138.826 28.6798 138.529 27.4108 138.529 25.9528C138.529 24.5218 138.826 23.2528 139.447 22.1188C140.068 20.9848 140.932 20.1208 142.066 19.4728C143.173 18.8518 144.442 18.5278 145.873 18.5278C147.115 18.5278 148.222 18.8518 149.221 19.4458C150.22 20.0398 151.003 20.9038 151.597 22.0108C152.164 23.1448 152.461 24.4138 152.461 25.8718V27.1678H142.606C142.687 28.1128 143.011 28.8418 143.551 29.3818C144.091 29.9218 144.874 30.1648 145.9 30.1648C146.575 30.1648 147.142 30.0028 147.574 29.6788C148.006 29.3548 148.276 28.9498 148.384 28.4368H152.38C152.164 29.9488 151.435 31.1638 150.247 32.0818C149.059 32.9998 147.601 33.4318 145.873 33.4318C144.442 33.4318 143.173 33.1348 142.066 32.4868ZM148.438 24.7108C148.384 23.9008 148.141 23.2528 147.655 22.7398C147.169 22.2538 146.521 21.9838 145.711 21.9838C144.793 21.9838 144.091 22.2268 143.578 22.7128C143.065 23.1988 142.741 23.8738 142.633 24.7108H148.438Z" fill="#0A0D12"/>
<path d="M154.146 19.1998H158.142V20.9848C158.628 20.2288 159.249 19.6078 160.059 19.1758C160.869 18.7438 161.814 18.5278 162.894 18.5278C166.35 18.5278 168.105 20.7148 168.105 25.0618V32.9998H164.055V25.2778C164.055 24.2518 163.812 23.4688 163.326 22.8748C162.84 22.2808 162.165 21.9838 161.301 21.9838C160.329 21.9838 159.546 22.3348 158.979 23.0368C158.412 23.7388 158.142 24.6568 158.142 25.8178V32.9998H154.146V19.1998Z" fill="#0A0D12"/>
<path d="M176.065 33.1078C174.985 33.1078 174.148 32.9998 173.554 32.7838C172.933 32.5678 172.474 32.1898 172.204 31.6228C171.907 31.0558 171.772 30.2458 171.799 29.2198V22.6048H168.802V18.9598H171.799V15.1798H175.795V18.9598H179.467V22.6048H175.795V27.1678C175.795 27.8698 175.822 28.3558 175.876 28.6528C175.93 28.9768 176.092 29.1928 176.308 29.3278C176.524 29.4628 176.875 29.5168 177.388 29.5168C177.766 29.5168 178.849 29.4898 179.47 29.4358V32.9728C178.255 33.0808 176.74 33.1078 176.065 33.1078Z" fill="#0A0D12"/>
<defs>
<filter id="filter0_iii_3046_38802" x="0" y="-3" width="48" height="54" filterUnits="userSpaceOnUse" color-interpolation-filters="sRGB">
<feFlood flood-opacity="0" result="BackgroundImageFix"/>
<feBlend mode="normal" in="SourceGraphic" in2="BackgroundImageFix" result="shape"/>
<feColorMatrix in="SourceAlpha" type="matrix" values="0 0 0 0 0 0 0 0 0 0 0 0 0 0 0 0 0 0 127 0" result="hardAlpha"/>
<feOffset dy="-3"/>
<feGaussianBlur stdDeviation="1.5"/>
<feComposite in2="hardAlpha" operator="arithmetic" k2="-1" k3="1"/>
<feColorMatrix type="matrix" values="0 0 0 0 0 0 0 0 0 0 0 0 0 0 0 0 0 0 0.1 0"/>
<feBlend mode="normal" in2="shape" result="effect1_innerShadow_3046_38802"/>
<feColorMatrix in="SourceAlpha" type="matrix" values="0 0 0 0 0 0 0 0 0 0 0 0 0 0 0 0 0 0 127 0" result="hardAlpha"/>
<feOffset dy="3"/>
<feGaussianBlur stdDeviation="1.5"/>
<feComposite in2="hardAlpha" operator="arithmetic" k2="-1" k3="1"/>
<feColorMatrix type="matrix" values="0 0 0 0 1 0 0 0 0 1 0 0 0 0 1 0 0 0 0.1 0"/>
<feBlend mode="normal" in2="effect1_innerShadow_3046_38802" result="effect2_innerShadow_3046_38802"/>
<feColorMatrix in="SourceAlpha" type="matrix" values="0 0 0 0 0 0 0 0 0 0 0 0 0 0 0 0 0 0 127 0" result="hardAlpha"/>
<feMorphology radius="1" operator="erode" in="SourceAlpha" result="effect3_innerShadow_3046_38802"/>
<feOffset/>
<feComposite in2="hardAlpha" operator="arithmetic" k2="-1" k3="1"/>
<feColorMatrix type="matrix" values="0 0 0 0 0 0 0 0 0 0 0 0 0 0 0 0 0 0 0.2 0"/>
<feBlend mode="normal" in2="effect2_innerShadow_3046_38802" result="effect3_innerShadow_3046_38802"/>
</filter>
<filter id="filter1_d_3046_38802" x="6" y="5.25" width="36" height="42" filterUnits="userSpaceOnUse" color-interpolation-filters="sRGB">
<feFlood flood-opacity="0" result="BackgroundImageFix"/>
<feColorMatrix in="SourceAlpha" type="matrix" values="0 0 0 0 0 0 0 0 0 0 0 0 0 0 0 0 0 0 127 0" result="hardAlpha"/>
<feMorphology radius="1.5" operator="erode" in="SourceAlpha" result="effect1_dropShadow_3046_38802"/>
<feOffset dy="2.25"/>
<feGaussianBlur stdDeviation="2.25"/>
<feComposite in2="hardAlpha" operator="out"/>
<feColorMatrix type="matrix" values="0 0 0 0 0.141176 0 0 0 0 0.141176 0 0 0 0 0.141176 0 0 0 0.1 0"/>
<feBlend mode="normal" in2="BackgroundImageFix" result="effect1_dropShadow_3046_38802"/>
<feBlend mode="normal" in="SourceGraphic" in2="effect1_dropShadow_3046_38802" result="shape"/>
</filter>
<linearGradient id="paint0_linear_3046_38802" x1="24" y1="5.96047e-07" x2="26" y2="48" gradientUnits="userSpaceOnUse">
<stop stop-color="white" stop-opacity="0"/>
<stop offset="1" stop-color="white" stop-opacity="0.12"/>
</linearGradient>
<linearGradient id="paint1_linear_3046_38802" x1="16.5" y1="9" x2="16.5" y2="24" gradientUnits="userSpaceOnUse">
<stop stop-color="white" stop-opacity="0.8"/>
<stop offset="1" stop-color="white" stop-opacity="0.5"/>
</linearGradient>
<linearGradient id="paint2_linear_3046_38802" x1="24" y1="24" x2="24" y2="39" gradientUnits="userSpaceOnUse">
<stop stop-color="white" stop-opacity="0.8"/>
<stop offset="1" stop-color="white" stop-opacity="0.5"/>
</linearGradient>
<linearGradient id="paint3_linear_3046_38802" x1="23.9993" y1="19.2271" x2="23.9993" y2="23.9998" gradientUnits="userSpaceOnUse">
<stop stop-color="white" stop-opacity="0.8"/>
<stop offset="1" stop-color="white" stop-opacity="0.5"/>
</linearGradient>
<linearGradient id="paint4_linear_3046_38802" x1="23.9993" y1="28.7729" x2="23.9993" y2="24.0002" gradientUnits="userSpaceOnUse">
<stop stop-color="white" stop-opacity="0.8"/>
<stop offset="1" stop-color="white" stop-opacity="0.5"/>
</linearGradient>
<linearGradient id="paint5_linear_3046_38802" x1="24" y1="0" x2="24" y2="48" gradientUnits="userSpaceOnUse">
<stop stop-color="white" stop-opacity="0.12"/>
<stop offset="1" stop-color="white" stop-opacity="0"/>
</linearGradient>
<clipPath id="clip0_3046_38802">
<rect width="48" height="48" rx="12" fill="white"/>
</clipPath>
</defs>
</svg>
