<svg width="231" height="48" viewBox="0 0 231 48" fill="none" xmlns="http://www.w3.org/2000/svg">
<g filter="url(#filter0_iii_3046_38803)">
<g clip-path="url(#clip0_3046_38803)">
<rect width="48" height="48" rx="12" fill="#0A0D12"/>
<rect width="48" height="48" fill="url(#paint0_linear_3046_38803)"/>
<g filter="url(#filter1_d_3046_38803)">
<path d="M18.3429 18.9107L29.4775 12.4821L22.7968 8.625L11.6624 15.0535L11.6621 27.9104L18.3429 31.7676L18.3429 18.9107Z" fill="url(#paint1_linear_3046_38803)"/>
<path d="M36.335 19.3396L36.335 32.1967L25.2003 38.625L18.5195 34.7679L29.6541 28.3393L29.6542 15.4824L36.335 19.3396Z" fill="url(#paint2_linear_3046_38803)"/>
</g>
</g>
<rect x="1" y="1" width="46" height="46" rx="11" stroke="url(#paint3_linear_3046_38803)" stroke-width="2"/>
</g>
<path d="M68.127 33.2432C65.463 33.2432 63.438 32.6492 62.052 31.4612C60.684 30.2732 60 28.7252 60 26.8172H64.266C64.302 27.7892 64.626 28.5722 65.238 29.1662C65.868 29.7422 66.885 30.0302 68.289 30.0302C69.369 30.0302 70.233 29.8322 70.881 29.4362C71.529 29.0402 71.853 28.4552 71.853 27.6812C71.853 27.0512 71.718 26.5652 71.448 26.2232C71.178 25.8632 70.71 25.5842 70.044 25.3862C69.378 25.1882 68.451 24.9902 67.263 24.7922C64.995 24.4322 63.285 23.8202 62.133 22.9562C60.981 22.0742 60.405 20.7782 60.405 19.0682C60.405 17.2142 61.089 15.7562 62.457 14.6942C63.825 13.6142 65.706 13.0742 68.1 13.0742C69.648 13.0742 70.98 13.3172 72.096 13.8032C73.212 14.2892 74.076 14.9732 74.688 15.8552C75.318 16.7372 75.633 17.7632 75.633 18.9332H71.394C71.358 17.9792 71.007 17.2952 70.341 16.8812C69.693 16.4672 68.901 16.2602 67.965 16.2602C66.975 16.2602 66.192 16.4672 65.616 16.8812C65.058 17.2772 64.779 17.8262 64.779 18.5282C64.779 19.1402 64.941 19.5992 65.265 19.9052C65.589 20.2112 66.093 20.4452 66.777 20.6072C67.479 20.7692 68.397 20.9492 69.531 21.1472C70.359 21.2732 71.169 21.4442 71.961 21.6602C72.753 21.8762 73.464 22.2002 74.094 22.6322C74.742 23.0462 75.255 23.6312 75.633 24.3872C76.029 25.1252 76.227 26.0882 76.227 27.2762C76.227 29.0402 75.543 30.4802 74.175 31.5962C72.825 32.6942 70.809 33.2432 68.127 33.2432Z" fill="#0A0D12"/>
<path d="M78.41 33.0002V13.3172H82.379V21.1472H82.541C82.937 20.1932 83.549 19.4732 84.377 18.9872C85.205 18.5012 86.132 18.2582 87.158 18.2582C88.13 18.2582 88.994 18.4562 89.75 18.8522C90.524 19.2482 91.136 19.8872 91.586 20.7692C92.036 21.6332 92.261 22.7942 92.261 24.2522V33.0002H88.292V25.1162C88.292 23.8922 88.076 22.9832 87.644 22.3892C87.212 21.7952 86.519 21.4982 85.565 21.4982C84.539 21.4982 83.747 21.8492 83.189 22.5512C82.649 23.2352 82.379 24.0362 82.379 24.9542V33.0002H78.41Z" fill="#0A0D12"/>
<path d="M99.7406 33.2432C98.0666 33.2432 96.7886 32.7572 95.9066 31.7852C95.0246 30.8132 94.5836 29.4002 94.5836 27.5462V18.5282H98.5526V26.4932C98.5526 27.6452 98.7596 28.5272 99.1736 29.1392C99.6056 29.7332 100.317 30.0302 101.307 30.0302C102.315 30.0302 103.089 29.6882 103.629 29.0042C104.187 28.3022 104.466 27.4742 104.466 26.5202V18.5282H108.435V33.0002H104.628L104.466 30.3542H104.277C103.935 31.2902 103.35 32.0102 102.522 32.5142C101.712 33.0002 100.785 33.2432 99.7406 33.2432Z" fill="#0A0D12"/>
<path d="M115.938 33.0002C114.966 33.0002 114.21 32.8562 113.67 32.5682C113.13 32.2802 112.752 31.8752 112.536 31.3532C112.338 30.8132 112.239 30.1832 112.239 29.4632V21.7142H109.647V18.5282H112.239V14.5862L116.181 14.2082V18.5282H121.257V14.5862L125.199 14.2082V18.5282H128.115V21.7142H125.199V28.7072C125.199 29.1392 125.298 29.4272 125.496 29.5712C125.694 29.7152 125.982 29.7872 126.36 29.7872H128.115V33.0002H124.956C123.984 33.0002 123.228 32.8562 122.688 32.5682C122.148 32.2802 121.77 31.8752 121.554 31.3532C121.356 30.8132 121.257 30.1832 121.257 29.4632V21.7142H116.181V28.7072C116.181 29.1392 116.28 29.4272 116.478 29.5712C116.676 29.7152 116.964 29.7872 117.342 29.7872H119.097V33.0002H115.938Z" fill="#0A0D12"/>
<path d="M136.001 33.2432C134.489 33.2432 133.193 32.9372 132.113 32.3252C131.051 31.7132 130.232 30.8582 129.656 29.7602C129.08 28.6442 128.792 27.3482 128.792 25.8722C128.792 24.3062 129.08 22.9562 129.656 21.8222C130.25 20.6882 131.078 19.8152 132.14 19.2032C133.202 18.5732 134.444 18.2582 135.866 18.2582C137.54 18.2582 138.917 18.6272 139.997 19.3652C141.077 20.0852 141.851 21.0842 142.319 22.3622C142.787 23.6222 142.94 25.0532 142.778 26.6552H132.707C132.689 27.8072 132.986 28.6982 133.598 29.3282C134.21 29.9402 135.011 30.2462 136.001 30.2462C136.757 30.2462 137.396 30.0842 137.918 29.7602C138.458 29.4182 138.8 28.9682 138.944 28.4102H142.697C142.571 29.3822 142.202 30.2282 141.59 30.9482C140.996 31.6682 140.222 32.2352 139.268 32.6492C138.314 33.0452 137.225 33.2432 136.001 33.2432ZM135.866 21.2552C134.966 21.2552 134.237 21.5162 133.679 22.0382C133.121 22.5422 132.806 23.2352 132.734 24.1172H138.89C138.836 23.1452 138.521 22.4252 137.945 21.9572C137.387 21.4892 136.694 21.2552 135.866 21.2552Z" fill="#0A0D12"/>
<path d="M144.831 33.0002V18.5282H148.422L148.584 20.8502H148.719C149.043 19.9142 149.556 19.2662 150.258 18.9062C150.978 18.5282 151.797 18.3392 152.715 18.3392H153.525V22.0652H152.634C151.302 22.0652 150.339 22.3622 149.745 22.9562C149.151 23.5322 148.836 24.3602 148.8 25.4402V33.0002H144.831Z" fill="#0A0D12"/>
<path d="M156.549 33.0002V21.7142H154.173V18.5282H156.549V16.9892C156.549 15.8012 156.918 14.8922 157.656 14.2622C158.394 13.6322 159.438 13.3172 160.788 13.3172H163.704V15.9902H161.949C161.391 15.9902 161.013 16.1072 160.815 16.3412C160.617 16.5752 160.518 16.8722 160.518 17.2322V18.5282H163.461V21.7142H160.518V33.0002H156.549Z" fill="#0A0D12"/>
<path d="M165.003 33.0002V18.5282H168.594L168.756 20.8502H168.891C169.215 19.9142 169.728 19.2662 170.43 18.9062C171.15 18.5282 171.969 18.3392 172.887 18.3392H173.697V22.0652H172.806C171.474 22.0652 170.511 22.3622 169.917 22.9562C169.323 23.5322 169.008 24.3602 168.972 25.4402V33.0002H165.003Z" fill="#0A0D12"/>
<path d="M179.898 33.2432C178.17 33.2432 176.775 32.6222 175.713 31.3802C174.651 30.1202 174.12 28.2482 174.12 25.7642C174.12 23.2622 174.651 21.3902 175.713 20.1482C176.775 18.8882 178.17 18.2582 179.898 18.2582C181.014 18.2582 181.968 18.5102 182.76 19.0142C183.57 19.5182 184.146 20.1932 184.488 21.0392H184.704L184.866 18.5282H188.673V33.0002H184.704V30.4622H184.488C184.146 31.2902 183.57 31.9652 182.76 32.4872C181.968 32.9912 181.014 33.2432 179.898 33.2432ZM181.41 30.0302C182.148 30.0302 182.751 29.8592 183.219 29.5172C183.705 29.1752 184.065 28.7342 184.299 28.1942C184.533 27.6362 184.65 27.0512 184.65 26.4392V25.0622C184.65 24.4322 184.533 23.8472 184.299 23.3072C184.065 22.7672 183.705 22.3262 183.219 21.9842C182.751 21.6422 182.148 21.4712 181.41 21.4712C180.438 21.4712 179.655 21.8222 179.061 22.5242C178.467 23.2082 178.17 24.2882 178.17 25.7642C178.17 27.2222 178.467 28.3022 179.061 29.0042C179.655 29.6882 180.438 30.0302 181.41 30.0302Z" fill="#0A0D12"/>
<path d="M191.529 33.0002V18.5282H195.363L195.498 21.1472H195.66C196.02 20.1932 196.605 19.4732 197.415 18.9872C198.225 18.5012 199.116 18.2582 200.088 18.2582C201.096 18.2582 202.014 18.5012 202.842 18.9872C203.67 19.4732 204.282 20.3102 204.678 21.4982H204.894C205.236 20.4182 205.839 19.6082 206.703 19.0682C207.585 18.5282 208.575 18.2582 209.673 18.2582C210.609 18.2582 211.446 18.4562 212.184 18.8522C212.922 19.2482 213.507 19.8872 213.939 20.7692C214.389 21.6332 214.614 22.7942 214.614 24.2522V33.0002H210.645V25.1162C210.645 23.8922 210.438 22.9832 210.024 22.3892C209.628 21.7952 208.98 21.4982 208.08 21.4982C207.126 21.4982 206.379 21.8492 205.839 22.5512C205.317 23.2352 205.056 24.0362 205.056 24.9542V33.0002H201.087V25.1162C201.087 23.8922 200.88 22.9832 200.466 22.3892C200.07 21.7952 199.422 21.4982 198.522 21.4982C197.55 21.4982 196.803 21.8492 196.281 22.5512C195.759 23.2352 195.498 24.0362 195.498 24.9542V33.0002H191.529Z" fill="#0A0D12"/>
<path d="M223.675 33.2432C222.163 33.2432 220.867 32.9372 219.787 32.3252C218.725 31.7132 217.906 30.8582 217.33 29.7602C216.754 28.6442 216.466 27.3482 216.466 25.8722C216.466 24.3062 216.754 22.9562 217.33 21.8222C217.924 20.6882 218.752 19.8152 219.814 19.2032C220.876 18.5732 222.118 18.2582 223.54 18.2582C225.214 18.2582 226.591 18.6272 227.671 19.3652C228.751 20.0852 229.525 21.0842 229.993 22.3622C230.461 23.6222 230.614 25.0532 230.452 26.6552H220.381C220.363 27.8072 220.66 28.6982 221.272 29.3282C221.884 29.9402 222.685 30.2462 223.675 30.2462C224.431 30.2462 225.07 30.0842 225.592 29.7602C226.132 29.4182 226.474 28.9682 226.618 28.4102H230.371C230.245 29.3822 229.876 30.2282 229.264 30.9482C228.67 31.6682 227.896 32.2352 226.942 32.6492C225.988 33.0452 224.899 33.2432 223.675 33.2432ZM223.54 21.2552C222.64 21.2552 221.911 21.5162 221.353 22.0382C220.795 22.5422 220.48 23.2352 220.408 24.1172H226.564C226.51 23.1452 226.195 22.4252 225.619 21.9572C225.061 21.4892 224.368 21.2552 223.54 21.2552Z" fill="#0A0D12"/>
<defs>
<filter id="filter0_iii_3046_38803" x="0" y="-3" width="48" height="54" filterUnits="userSpaceOnUse" color-interpolation-filters="sRGB">
<feFlood flood-opacity="0" result="BackgroundImageFix"/>
<feBlend mode="normal" in="SourceGraphic" in2="BackgroundImageFix" result="shape"/>
<feColorMatrix in="SourceAlpha" type="matrix" values="0 0 0 0 0 0 0 0 0 0 0 0 0 0 0 0 0 0 127 0" result="hardAlpha"/>
<feOffset dy="-3"/>
<feGaussianBlur stdDeviation="1.5"/>
<feComposite in2="hardAlpha" operator="arithmetic" k2="-1" k3="1"/>
<feColorMatrix type="matrix" values="0 0 0 0 0 0 0 0 0 0 0 0 0 0 0 0 0 0 0.1 0"/>
<feBlend mode="normal" in2="shape" result="effect1_innerShadow_3046_38803"/>
<feColorMatrix in="SourceAlpha" type="matrix" values="0 0 0 0 0 0 0 0 0 0 0 0 0 0 0 0 0 0 127 0" result="hardAlpha"/>
<feOffset dy="3"/>
<feGaussianBlur stdDeviation="1.5"/>
<feComposite in2="hardAlpha" operator="arithmetic" k2="-1" k3="1"/>
<feColorMatrix type="matrix" values="0 0 0 0 1 0 0 0 0 1 0 0 0 0 1 0 0 0 0.1 0"/>
<feBlend mode="normal" in2="effect1_innerShadow_3046_38803" result="effect2_innerShadow_3046_38803"/>
<feColorMatrix in="SourceAlpha" type="matrix" values="0 0 0 0 0 0 0 0 0 0 0 0 0 0 0 0 0 0 127 0" result="hardAlpha"/>
<feMorphology radius="1" operator="erode" in="SourceAlpha" result="effect3_innerShadow_3046_38803"/>
<feOffset/>
<feComposite in2="hardAlpha" operator="arithmetic" k2="-1" k3="1"/>
<feColorMatrix type="matrix" values="0 0 0 0 0 0 0 0 0 0 0 0 0 0 0 0 0 0 0.2 0"/>
<feBlend mode="normal" in2="effect2_innerShadow_3046_38803" result="effect3_innerShadow_3046_38803"/>
</filter>
<filter id="filter1_d_3046_38803" x="8.66211" y="5.25" width="30.6738" height="42" filterUnits="userSpaceOnUse" color-interpolation-filters="sRGB">
<feFlood flood-opacity="0" result="BackgroundImageFix"/>
<feColorMatrix in="SourceAlpha" type="matrix" values="0 0 0 0 0 0 0 0 0 0 0 0 0 0 0 0 0 0 127 0" result="hardAlpha"/>
<feMorphology radius="1.5" operator="erode" in="SourceAlpha" result="effect1_dropShadow_3046_38803"/>
<feOffset dy="2.25"/>
<feGaussianBlur stdDeviation="2.25"/>
<feComposite in2="hardAlpha" operator="out"/>
<feColorMatrix type="matrix" values="0 0 0 0 0.141176 0 0 0 0 0.141176 0 0 0 0 0.141176 0 0 0 0.1 0"/>
<feBlend mode="normal" in2="BackgroundImageFix" result="effect1_dropShadow_3046_38803"/>
<feBlend mode="normal" in="SourceGraphic" in2="effect1_dropShadow_3046_38803" result="shape"/>
</filter>
<linearGradient id="paint0_linear_3046_38803" x1="24" y1="5.96047e-07" x2="26" y2="48" gradientUnits="userSpaceOnUse">
<stop stop-color="white" stop-opacity="0"/>
<stop offset="1" stop-color="white" stop-opacity="0.12"/>
</linearGradient>
<linearGradient id="paint1_linear_3046_38803" x1="20.5698" y1="8.625" x2="20.5698" y2="31.7676" gradientUnits="userSpaceOnUse">
<stop stop-color="white" stop-opacity="0.8"/>
<stop offset="1" stop-color="white" stop-opacity="0.5"/>
</linearGradient>
<linearGradient id="paint2_linear_3046_38803" x1="27.4272" y1="15.4824" x2="27.4272" y2="38.625" gradientUnits="userSpaceOnUse">
<stop stop-color="white" stop-opacity="0.8"/>
<stop offset="1" stop-color="white" stop-opacity="0.5"/>
</linearGradient>
<linearGradient id="paint3_linear_3046_38803" x1="24" y1="0" x2="24" y2="48" gradientUnits="userSpaceOnUse">
<stop stop-color="white" stop-opacity="0.12"/>
<stop offset="1" stop-color="white" stop-opacity="0"/>
</linearGradient>
<clipPath id="clip0_3046_38803">
<rect width="48" height="48" rx="12" fill="white"/>
</clipPath>
</defs>
</svg>
