<svg width="209" height="48" viewBox="0 0 209 48" fill="none" xmlns="http://www.w3.org/2000/svg">
<g filter="url(#filter0_iii_3046_38808)">
<g clip-path="url(#clip0_3046_38808)">
<rect width="48" height="48" rx="12" fill="#1570EF"/>
<rect width="48" height="48" fill="url(#paint0_linear_3046_38808)"/>
<g filter="url(#filter1_d_3046_38808)">
<path fill-rule="evenodd" clip-rule="evenodd" d="M29.8847 7.51041C30.2201 7.33547 30.6208 7.3407 30.9514 7.52435L38.5463 11.7431C38.9035 11.9415 39.125 12.318 39.125 12.7266L39.1245 21.1638C39.1244 21.5829 38.8914 21.9673 38.5199 22.1611L19.1147 32.2858C18.7794 32.4608 18.3786 32.4555 18.0479 32.2718L10.4551 28.0532C10.098 27.8548 9.87654 27.4785 9.87647 27.07L9.875 18.6327C9.87493 18.2135 10.1079 17.829 10.4796 17.6351L29.8847 7.51041ZM12.1251 19.3144L12.1261 25.2141L29.2815 16.2632L29.2805 10.3635L12.1251 19.3144ZM31.5305 10.4198L31.5315 16.2831L36.8746 19.2518L36.875 13.3885L31.5305 10.4198ZM35.6271 21.1326L30.3899 18.2227L13.3738 27.1009L18.6111 30.0108L35.6271 21.1326Z" fill="url(#paint1_linear_3046_38808)"/>
<path opacity="0.5" fill-rule="evenodd" clip-rule="evenodd" d="M19.1153 40.724C18.7799 40.8989 18.3792 40.8937 18.0486 40.71L10.4537 36.4913C10.0965 36.2928 9.87498 35.9163 9.87501 35.5077L9.87553 27.0706C9.87555 26.6515 10.1086 26.2671 10.4801 26.0732L29.8853 15.9485C30.2206 15.7736 30.6214 15.7788 30.9521 15.9625L38.5449 20.1812C38.902 20.3796 39.1235 20.7559 39.1235 21.1644L39.125 29.6017C39.1251 30.0209 38.8921 30.4053 38.5204 30.5992L19.1153 40.724ZM36.8749 28.92L36.8739 23.0203L19.7185 31.9712L19.7195 37.8708L36.8749 28.92ZM17.4695 37.8146L17.4685 31.9513L12.1254 28.9826L12.125 34.8458L17.4695 37.8146ZM13.3729 27.1018L18.6101 30.0116L35.6262 21.1335L30.3889 18.2236L13.3729 27.1018Z" fill="url(#paint2_linear_3046_38808)"/>
</g>
</g>
<rect x="1" y="1" width="46" height="46" rx="11" stroke="url(#paint3_linear_3046_38808)" stroke-width="2"/>
</g>
<path d="M76.065 26.9791C76.065 30.6781 73.095 33.2701 68.235 33.2701C63.348 33.2701 60.297 30.6511 60 26.5471H64.158C64.266 28.6801 65.643 30.0571 68.154 30.0571C70.233 30.0571 71.718 29.1391 71.718 27.5731C71.718 26.3581 70.773 25.6291 69.126 25.3051L65.94 24.6841C62.997 24.1171 60.729 22.5241 60.729 19.3111C60.729 15.8551 63.78 13.3711 67.965 13.3711C72.312 13.3711 75.498 15.9091 75.768 19.9591H71.61C71.475 17.9341 70.071 16.5571 68.019 16.5571C66.021 16.5571 64.887 17.6911 64.887 19.0411C64.887 20.3641 66.102 20.9311 67.506 21.2011L70.827 21.8761C74.229 22.5511 76.065 24.1171 76.065 26.9791Z" fill="#0A0D12"/>
<path d="M86.7568 29.3551V32.6221C85.8388 33.0811 84.9748 33.2701 83.8678 33.2701C80.8978 33.2701 79.0348 31.5691 79.0348 28.3291V21.7951H76.1188V18.5821H79.0348V14.3161H82.7608V18.5821H86.8918V21.7951H82.7608V27.4651C82.7608 29.1391 83.5168 29.8141 84.8668 29.8141C85.5688 29.8141 86.2168 29.6521 86.7568 29.3551Z" fill="#0A0D12"/>
<path d="M96.6894 33.0001V31.2181C95.7444 32.5681 94.3134 33.2701 92.3424 33.2701C89.3454 33.2701 87.3474 31.5151 87.3474 28.8151C87.3474 26.0071 89.6154 24.4951 93.8274 24.4951C94.6374 24.4951 95.3394 24.5491 96.2304 24.6571V23.7931C96.2304 22.1731 95.3124 21.2281 93.7464 21.2281C92.1264 21.2281 91.1544 22.1731 91.0194 23.7931H87.6444C87.8604 20.4721 90.2634 18.3121 93.7464 18.3121C97.5264 18.3121 99.7404 20.3911 99.7404 23.9281V33.0001H96.6894ZM90.8844 28.7071C90.8844 29.9221 91.7484 30.6781 93.1524 30.6781C95.0694 30.6781 96.2304 29.6251 96.2304 27.9511V26.9251C95.3394 26.7901 94.7184 26.7361 94.0704 26.7361C91.9374 26.7361 90.8844 27.4111 90.8844 28.7071Z" fill="#0A0D12"/>
<path d="M107.97 33.2701C103.812 33.2701 100.95 30.1921 100.95 25.7911C100.95 21.4711 103.92 18.3121 107.97 18.3121C111.723 18.3121 114.504 20.8501 114.963 24.7381H111.021C110.832 22.8211 109.671 21.6331 107.97 21.6331C106.026 21.6331 104.784 23.2261 104.784 25.7911C104.784 28.3831 105.999 29.9491 107.97 29.9491C109.698 29.9491 110.805 28.8151 111.021 26.8441H114.963C114.531 30.8131 111.831 33.2701 107.97 33.2701Z" fill="#0A0D12"/>
<path d="M120.045 33.0001H116.292V13.6141H120.045V24.6841L125.31 18.5821H129.63L123.663 25.4941L130.332 33.0001H125.553L120.045 26.3041V33.0001Z" fill="#0A0D12"/>
<path d="M144.538 25.7911C144.538 21.5251 147.049 18.3121 150.937 18.3121C152.665 18.3121 154.123 19.0681 155.203 20.4451V13.6141H158.929V33.0001H155.5V30.9211C154.366 32.4331 152.8 33.2701 150.937 33.2701C147.049 33.2701 144.538 30.0031 144.538 25.7911ZM148.399 25.7911C148.399 28.4911 149.938 29.9221 151.774 29.9221C153.637 29.9221 155.176 28.4641 155.176 25.7371C155.176 23.0101 153.61 21.6331 151.774 21.6331C149.938 21.6331 148.399 23.0371 148.399 25.7911Z" fill="#0A0D12"/>
<path d="M178.613 33.0001H166.085V13.6141H170.189V29.3011H178.613V33.0001Z" fill="#0A0D12"/>
<path d="M188.613 33.0001V31.2181C187.668 32.5681 186.237 33.2701 184.266 33.2701C181.269 33.2701 179.271 31.5151 179.271 28.8151C179.271 26.0071 181.539 24.4951 185.751 24.4951C186.561 24.4951 187.263 24.5491 188.154 24.6571V23.7931C188.154 22.1731 187.236 21.2281 185.67 21.2281C184.05 21.2281 183.078 22.1731 182.943 23.7931H179.568C179.784 20.4721 182.187 18.3121 185.67 18.3121C189.45 18.3121 191.664 20.3911 191.664 23.9281V33.0001H188.613ZM182.808 28.7071C182.808 29.9221 183.672 30.6781 185.076 30.6781C186.993 30.6781 188.154 29.6251 188.154 27.9511V26.9251C187.263 26.7901 186.642 26.7361 185.994 26.7361C183.861 26.7361 182.808 27.4111 182.808 28.7071Z" fill="#0A0D12"/>
<path d="M208.209 25.7911C208.209 30.0031 205.698 33.2701 201.81 33.2701C199.947 33.2701 198.381 32.4331 197.274 30.9211V33.0001H193.818V13.6141H197.571V20.4451C198.624 19.0411 200.082 18.3121 201.81 18.3121C205.698 18.3121 208.209 21.5251 208.209 25.7911ZM204.348 25.7911C204.348 23.0371 202.809 21.6331 200.973 21.6331C199.164 21.6331 197.598 23.0101 197.598 25.7371C197.598 28.4641 199.11 29.9221 200.973 29.9221C202.809 29.9221 204.348 28.4911 204.348 25.7911Z" fill="#0A0D12"/>
<path d="M137.19 33.2431C141.132 33.2431 143.913 30.9211 143.94 27.6271H140.295C140.187 29.2741 138.999 30.2731 137.136 30.2731C135.192 30.2731 134.058 29.3011 134.058 27.6811C134.058 26.0881 135.381 25.1431 137.622 25.1431H139.593V22.1731H137.838C136.002 22.1731 134.895 21.2551 134.895 19.7701C134.895 18.3391 135.84 17.4481 137.406 17.4481C138.945 17.4481 139.917 18.4201 139.944 20.0131H143.589C143.562 16.8541 140.808 14.4781 137.217 14.4781C133.383 14.4781 131.034 16.5571 131.034 19.5001C131.034 21.1741 132.006 22.4971 133.761 23.4151C131.493 24.1441 130.197 25.6021 130.197 27.5731C130.197 30.9481 133.005 33.2431 137.19 33.2431Z" fill="#0A0D12"/>
<defs>
<filter id="filter0_iii_3046_38808" x="0" y="-3" width="48" height="54" filterUnits="userSpaceOnUse" color-interpolation-filters="sRGB">
<feFlood flood-opacity="0" result="BackgroundImageFix"/>
<feBlend mode="normal" in="SourceGraphic" in2="BackgroundImageFix" result="shape"/>
<feColorMatrix in="SourceAlpha" type="matrix" values="0 0 0 0 0 0 0 0 0 0 0 0 0 0 0 0 0 0 127 0" result="hardAlpha"/>
<feOffset dy="-3"/>
<feGaussianBlur stdDeviation="1.5"/>
<feComposite in2="hardAlpha" operator="arithmetic" k2="-1" k3="1"/>
<feColorMatrix type="matrix" values="0 0 0 0 0 0 0 0 0 0 0 0 0 0 0 0 0 0 0.1 0"/>
<feBlend mode="normal" in2="shape" result="effect1_innerShadow_3046_38808"/>
<feColorMatrix in="SourceAlpha" type="matrix" values="0 0 0 0 0 0 0 0 0 0 0 0 0 0 0 0 0 0 127 0" result="hardAlpha"/>
<feOffset dy="3"/>
<feGaussianBlur stdDeviation="1.5"/>
<feComposite in2="hardAlpha" operator="arithmetic" k2="-1" k3="1"/>
<feColorMatrix type="matrix" values="0 0 0 0 1 0 0 0 0 1 0 0 0 0 1 0 0 0 0.1 0"/>
<feBlend mode="normal" in2="effect1_innerShadow_3046_38808" result="effect2_innerShadow_3046_38808"/>
<feColorMatrix in="SourceAlpha" type="matrix" values="0 0 0 0 0 0 0 0 0 0 0 0 0 0 0 0 0 0 127 0" result="hardAlpha"/>
<feMorphology radius="1" operator="erode" in="SourceAlpha" result="effect3_innerShadow_3046_38808"/>
<feOffset/>
<feComposite in2="hardAlpha" operator="arithmetic" k2="-1" k3="1"/>
<feColorMatrix type="matrix" values="0 0 0 0 0 0 0 0 0 0 0 0 0 0 0 0 0 0 0.2 0"/>
<feBlend mode="normal" in2="effect2_innerShadow_3046_38808" result="effect3_innerShadow_3046_38808"/>
</filter>
<filter id="filter1_d_3046_38808" x="6.875" y="5.25" width="35.25" height="42" filterUnits="userSpaceOnUse" color-interpolation-filters="sRGB">
<feFlood flood-opacity="0" result="BackgroundImageFix"/>
<feColorMatrix in="SourceAlpha" type="matrix" values="0 0 0 0 0 0 0 0 0 0 0 0 0 0 0 0 0 0 127 0" result="hardAlpha"/>
<feMorphology radius="1.5" operator="erode" in="SourceAlpha" result="effect1_dropShadow_3046_38808"/>
<feOffset dy="2.25"/>
<feGaussianBlur stdDeviation="2.25"/>
<feComposite in2="hardAlpha" operator="out"/>
<feColorMatrix type="matrix" values="0 0 0 0 0.141176 0 0 0 0 0.141176 0 0 0 0 0.141176 0 0 0 0.1 0"/>
<feBlend mode="normal" in2="BackgroundImageFix" result="effect1_dropShadow_3046_38808"/>
<feBlend mode="normal" in="SourceGraphic" in2="effect1_dropShadow_3046_38808" result="shape"/>
</filter>
<linearGradient id="paint0_linear_3046_38808" x1="24" y1="5.96047e-07" x2="26" y2="48" gradientUnits="userSpaceOnUse">
<stop stop-color="white" stop-opacity="0"/>
<stop offset="1" stop-color="white" stop-opacity="0.12"/>
</linearGradient>
<linearGradient id="paint1_linear_3046_38808" x1="24.5" y1="8.50781" x2="24.5" y2="31.2884" gradientUnits="userSpaceOnUse">
<stop stop-color="white" stop-opacity="0.8"/>
<stop offset="1" stop-color="white" stop-opacity="0.5"/>
</linearGradient>
<linearGradient id="paint2_linear_3046_38808" x1="24.5" y1="39.7266" x2="24.5" y2="16.9459" gradientUnits="userSpaceOnUse">
<stop stop-color="white" stop-opacity="0.8"/>
<stop offset="1" stop-color="white" stop-opacity="0.5"/>
</linearGradient>
<linearGradient id="paint3_linear_3046_38808" x1="24" y1="0" x2="24" y2="48" gradientUnits="userSpaceOnUse">
<stop stop-color="white" stop-opacity="0.12"/>
<stop offset="1" stop-color="white" stop-opacity="0"/>
</linearGradient>
<clipPath id="clip0_3046_38808">
<rect width="48" height="48" rx="12" fill="white"/>
</clipPath>
</defs>
</svg>
