<svg width="201" height="48" viewBox="0 0 201 48" fill="none" xmlns="http://www.w3.org/2000/svg">
<g filter="url(#filter0_iii_3046_38810)">
<g clip-path="url(#clip0_3046_38810)">
<rect width="48" height="48" rx="12" fill="#0A0D12"/>
<rect width="48" height="48" fill="url(#paint0_linear_3046_38810)"/>
<g filter="url(#filter1_d_3046_38810)">
<rect x="9" y="33.75" width="5.25" height="5.25" fill="white"/>
<rect opacity="0.6" x="14.25" y="33.75" width="5.25" height="5.25" fill="white"/>
<rect opacity="0.32" x="19.5" y="33.75" width="5.25" height="5.25" fill="white"/>
<rect opacity="0.07" x="24.75" y="33.75" width="5.25" height="5.25" fill="white"/>
<rect opacity="0.6" x="9" y="28.5" width="5.25" height="5.25" fill="white"/>
<rect opacity="0.32" x="14.25" y="28.5" width="5.25" height="5.25" fill="white"/>
<rect opacity="0.07" x="14.25" y="23.25" width="5.25" height="5.25" fill="white"/>
<rect opacity="0.07" x="19.5" y="28.5" width="5.25" height="5.25" fill="white"/>
<rect opacity="0.32" x="9" y="23.25" width="5.25" height="5.25" fill="white"/>
<rect opacity="0.07" x="9" y="18" width="5.25" height="5.25" fill="white"/>
<rect x="33.75" y="9" width="5.25" height="5.25" fill="white"/>
<rect opacity="0.6" x="33.75" y="14.25" width="5.25" height="5.25" fill="white"/>
<rect opacity="0.32" x="28.5" y="14.25" width="5.25" height="5.25" fill="white"/>
<rect opacity="0.07" x="23.25" y="14.25" width="5.25" height="5.25" fill="white"/>
<rect opacity="0.32" x="33.75" y="19.5" width="5.25" height="5.25" fill="white"/>
<rect opacity="0.07" x="28.5" y="19.5" width="5.25" height="5.25" fill="white"/>
<rect opacity="0.07" x="33.75" y="24.75" width="5.25" height="5.25" fill="white"/>
<rect opacity="0.6" x="28.5" y="9" width="5.25" height="5.25" fill="white"/>
<rect opacity="0.32" x="23.25" y="9" width="5.25" height="5.25" fill="white"/>
<rect opacity="0.07" x="18" y="9" width="5.25" height="5.25" fill="white"/>
</g>
</g>
<rect x="1" y="1" width="46" height="46" rx="11" stroke="url(#paint1_linear_3046_38810)" stroke-width="2"/>
</g>
<path d="M67.14 32.9999L60 12.5879H64.872L68.848 25.1879L69.968 28.8559H70.164L71.256 25.1879L75.26 12.5879H80.132L73.02 32.9999H67.14Z" fill="#0A0D12"/>
<path d="M86.4038 33.2519C84.9104 33.2519 83.5944 32.9439 82.4558 32.3279C81.3171 31.7119 80.4304 30.8252 79.7958 29.6679C79.1798 28.5106 78.8718 27.1199 78.8718 25.4959C78.8718 23.9466 79.1704 22.5932 79.7678 21.4359C80.3651 20.2599 81.2238 19.3452 82.3438 18.6919C83.4638 18.0386 84.8171 17.7119 86.4038 17.7119C87.8971 17.7119 89.2038 18.0199 90.3238 18.6359C91.4624 19.2519 92.3398 20.1479 92.9558 21.3239C93.5905 22.4812 93.9078 23.8719 93.9078 25.4959C93.9078 27.0452 93.6091 28.4079 93.0118 29.5839C92.4145 30.7412 91.5558 31.6466 90.4358 32.2999C89.3344 32.9346 87.9904 33.2519 86.4038 33.2519ZM86.3758 29.9199C87.3838 29.9199 88.1958 29.5559 88.8118 28.8279C89.4278 28.0999 89.7358 26.9892 89.7358 25.4959C89.7358 24.0026 89.4371 22.8919 88.8398 22.1639C88.2424 21.4359 87.4304 21.0719 86.4038 21.0719C85.3771 21.0719 84.5558 21.4359 83.9398 22.1639C83.3238 22.8919 83.0158 24.0026 83.0158 25.4959C83.0158 26.9706 83.3144 28.0812 83.9118 28.8279C84.5278 29.5559 85.3491 29.9199 86.3758 29.9199Z" fill="#0A0D12"/>
<path d="M93.1912 32.9999L98.8192 25.2999L93.6952 17.9919H98.5952L101.591 22.4999H101.759L104.727 17.9919H109.403L104.419 25.1879L109.935 32.9999H105.091L101.619 27.9039H101.451L97.8112 32.9999H93.1912Z" fill="#0A0D12"/>
<path d="M116.7 33.2519C115.132 33.2519 113.788 32.9346 112.668 32.2999C111.567 31.6652 110.718 30.7786 110.12 29.6399C109.523 28.4826 109.224 27.1386 109.224 25.6079C109.224 23.9839 109.523 22.5839 110.12 21.4079C110.736 20.2319 111.595 19.3266 112.696 18.6919C113.798 18.0386 115.086 17.7119 116.56 17.7119C118.296 17.7119 119.724 18.0946 120.844 18.8599C121.964 19.6066 122.767 20.6426 123.252 21.9679C123.738 23.2746 123.896 24.7586 123.728 26.4199H113.284C113.266 27.6146 113.574 28.5386 114.208 29.1919C114.843 29.8266 115.674 30.1439 116.7 30.1439C117.484 30.1439 118.147 29.9759 118.688 29.6399C119.248 29.2852 119.603 28.8186 119.752 28.2399H123.644C123.514 29.2479 123.131 30.1252 122.496 30.8719C121.88 31.6186 121.078 32.2066 120.088 32.6359C119.099 33.0466 117.97 33.2519 116.7 33.2519ZM116.56 20.8199C115.627 20.8199 114.871 21.0906 114.292 21.6319C113.714 22.1546 113.387 22.8732 113.312 23.7879H119.696C119.64 22.7799 119.314 22.0332 118.716 21.5479C118.138 21.0626 117.419 20.8199 116.56 20.8199Z" fill="#0A0D12"/>
<path d="M125.857 32.9999V12.5879H129.973V32.9999H125.857Z" fill="#0A0D12"/>
<path d="M138.802 32.9999V12.5879H143.171V29.1359H152.243V32.9999H138.802Z" fill="#0A0D12"/>
<path d="M158.613 33.2519C156.821 33.2519 155.374 32.6079 154.273 31.3199C153.172 30.0132 152.621 28.0719 152.621 25.4959C152.621 22.9012 153.172 20.9599 154.273 19.6719C155.374 18.3652 156.821 17.7119 158.613 17.7119C159.77 17.7119 160.76 17.9732 161.581 18.4959C162.421 19.0186 163.018 19.7186 163.373 20.5959H163.597L163.765 17.9919H167.713V32.9999H163.597V30.3679H163.373C163.018 31.2266 162.421 31.9266 161.581 32.4679C160.76 32.9906 159.77 33.2519 158.613 33.2519ZM160.181 29.9199C160.946 29.9199 161.572 29.7426 162.057 29.3879C162.561 29.0332 162.934 28.5759 163.177 28.0159C163.42 27.4372 163.541 26.8306 163.541 26.1959V24.7679C163.541 24.1146 163.42 23.5079 163.177 22.9479C162.934 22.3879 162.561 21.9306 162.057 21.5759C161.572 21.2212 160.946 21.0439 160.181 21.0439C159.173 21.0439 158.361 21.4079 157.745 22.1359C157.129 22.8452 156.821 23.9652 156.821 25.4959C156.821 27.0079 157.129 28.1279 157.745 28.8559C158.361 29.5652 159.173 29.9199 160.181 29.9199Z" fill="#0A0D12"/>
<path d="M179.776 33.2799C178.619 33.2799 177.62 33.0186 176.78 32.4959C175.959 31.9546 175.371 31.2546 175.016 30.3959H174.792L174.624 32.9999H170.676V12.5879H174.792V20.5959H175.016C175.371 19.7186 175.959 19.0186 176.78 18.4959C177.62 17.9732 178.619 17.7119 179.776 17.7119C181.568 17.7119 183.015 18.3652 184.116 19.6719C185.217 20.9599 185.768 22.9012 185.768 25.4959C185.768 28.0719 185.217 30.0132 184.116 31.3199C183.015 32.6266 181.568 33.2799 179.776 33.2799ZM178.208 29.9479C179.216 29.9479 180.028 29.5932 180.644 28.8839C181.26 28.1559 181.568 27.0266 181.568 25.4959C181.568 23.9652 181.26 22.8452 180.644 22.1359C180.028 21.4079 179.216 21.0439 178.208 21.0439C177.443 21.0439 176.808 21.2212 176.304 21.5759C175.8 21.9306 175.427 22.3972 175.184 22.9759C174.941 23.5359 174.82 24.1332 174.82 24.7679V26.2239C174.82 26.8586 174.941 27.4652 175.184 28.0439C175.427 28.6039 175.8 29.0612 176.304 29.4159C176.808 29.7706 177.443 29.9479 178.208 29.9479Z" fill="#0A0D12"/>
<path d="M193.855 33.2799C191.671 33.2799 189.981 32.8226 188.787 31.9079C187.611 30.9746 187.032 29.7612 187.051 28.2679H191.083C191.101 29.0706 191.381 29.6492 191.923 30.0039C192.483 30.3399 193.164 30.5079 193.967 30.5079C194.807 30.5079 195.441 30.3679 195.871 30.0879C196.3 29.7892 196.515 29.3879 196.515 28.8839C196.515 28.1932 196.263 27.7452 195.759 27.5399C195.273 27.3346 194.499 27.1572 193.435 27.0079C192.333 26.8586 191.325 26.6439 190.411 26.3639C189.496 26.0652 188.768 25.6172 188.227 25.0199C187.704 24.4226 187.443 23.5732 187.443 22.4719C187.443 20.8852 188.04 19.6999 189.235 18.9159C190.448 18.1132 192.035 17.7119 193.995 17.7119C195.917 17.7119 197.448 18.1319 198.587 18.9719C199.725 19.7932 200.313 20.9506 200.351 22.4439H196.319C196.319 21.8092 196.095 21.3239 195.647 20.9879C195.217 20.6519 194.629 20.4839 193.883 20.4839C193.117 20.4839 192.539 20.6332 192.147 20.9319C191.755 21.2119 191.559 21.5852 191.559 22.0519C191.559 22.6119 191.811 23.0039 192.315 23.2279C192.819 23.4519 193.621 23.6386 194.723 23.7879C195.507 23.8999 196.253 24.0399 196.963 24.2079C197.672 24.3572 198.297 24.5999 198.839 24.9359C199.399 25.2532 199.837 25.7012 200.155 26.2799C200.491 26.8399 200.659 27.5772 200.659 28.4919C200.659 30.1346 200.052 31.3479 198.839 32.1319C197.625 32.8972 195.964 33.2799 193.855 33.2799Z" fill="#0A0D12"/>
<defs>
<filter id="filter0_iii_3046_38810" x="0" y="-3" width="48" height="54" filterUnits="userSpaceOnUse" color-interpolation-filters="sRGB">
<feFlood flood-opacity="0" result="BackgroundImageFix"/>
<feBlend mode="normal" in="SourceGraphic" in2="BackgroundImageFix" result="shape"/>
<feColorMatrix in="SourceAlpha" type="matrix" values="0 0 0 0 0 0 0 0 0 0 0 0 0 0 0 0 0 0 127 0" result="hardAlpha"/>
<feOffset dy="-3"/>
<feGaussianBlur stdDeviation="1.5"/>
<feComposite in2="hardAlpha" operator="arithmetic" k2="-1" k3="1"/>
<feColorMatrix type="matrix" values="0 0 0 0 0 0 0 0 0 0 0 0 0 0 0 0 0 0 0.1 0"/>
<feBlend mode="normal" in2="shape" result="effect1_innerShadow_3046_38810"/>
<feColorMatrix in="SourceAlpha" type="matrix" values="0 0 0 0 0 0 0 0 0 0 0 0 0 0 0 0 0 0 127 0" result="hardAlpha"/>
<feOffset dy="3"/>
<feGaussianBlur stdDeviation="1.5"/>
<feComposite in2="hardAlpha" operator="arithmetic" k2="-1" k3="1"/>
<feColorMatrix type="matrix" values="0 0 0 0 1 0 0 0 0 1 0 0 0 0 1 0 0 0 0.1 0"/>
<feBlend mode="normal" in2="effect1_innerShadow_3046_38810" result="effect2_innerShadow_3046_38810"/>
<feColorMatrix in="SourceAlpha" type="matrix" values="0 0 0 0 0 0 0 0 0 0 0 0 0 0 0 0 0 0 127 0" result="hardAlpha"/>
<feMorphology radius="1" operator="erode" in="SourceAlpha" result="effect3_innerShadow_3046_38810"/>
<feOffset/>
<feComposite in2="hardAlpha" operator="arithmetic" k2="-1" k3="1"/>
<feColorMatrix type="matrix" values="0 0 0 0 0 0 0 0 0 0 0 0 0 0 0 0 0 0 0.2 0"/>
<feBlend mode="normal" in2="effect2_innerShadow_3046_38810" result="effect3_innerShadow_3046_38810"/>
</filter>
<filter id="filter1_d_3046_38810" x="6" y="5.25" width="36" height="42" filterUnits="userSpaceOnUse" color-interpolation-filters="sRGB">
<feFlood flood-opacity="0" result="BackgroundImageFix"/>
<feColorMatrix in="SourceAlpha" type="matrix" values="0 0 0 0 0 0 0 0 0 0 0 0 0 0 0 0 0 0 127 0" result="hardAlpha"/>
<feMorphology radius="1.5" operator="erode" in="SourceAlpha" result="effect1_dropShadow_3046_38810"/>
<feOffset dy="2.25"/>
<feGaussianBlur stdDeviation="2.25"/>
<feComposite in2="hardAlpha" operator="out"/>
<feColorMatrix type="matrix" values="0 0 0 0 0.141176 0 0 0 0 0.141176 0 0 0 0 0.141176 0 0 0 0.1 0"/>
<feBlend mode="normal" in2="BackgroundImageFix" result="effect1_dropShadow_3046_38810"/>
<feBlend mode="normal" in="SourceGraphic" in2="effect1_dropShadow_3046_38810" result="shape"/>
</filter>
<linearGradient id="paint0_linear_3046_38810" x1="24" y1="5.96047e-07" x2="26" y2="48" gradientUnits="userSpaceOnUse">
<stop stop-color="white" stop-opacity="0"/>
<stop offset="1" stop-color="white" stop-opacity="0.12"/>
</linearGradient>
<linearGradient id="paint1_linear_3046_38810" x1="24" y1="0" x2="24" y2="48" gradientUnits="userSpaceOnUse">
<stop stop-color="white" stop-opacity="0.12"/>
<stop offset="1" stop-color="white" stop-opacity="0"/>
</linearGradient>
<clipPath id="clip0_3046_38810">
<rect width="48" height="48" rx="12" fill="white"/>
</clipPath>
</defs>
</svg>
