<svg width="220" height="48" viewBox="0 0 220 48" fill="none" xmlns="http://www.w3.org/2000/svg">
<g filter="url(#filter0_iii_3046_38812)">
<g clip-path="url(#clip0_3046_38812)">
<rect width="48" height="48" rx="12" fill="#0A0D12"/>
<rect width="48" height="48" fill="url(#paint0_linear_3046_38812)"/>
<g filter="url(#filter1_d_3046_38812)">
<path fill-rule="evenodd" clip-rule="evenodd" d="M23.9974 8.1665C19.9063 8.1665 16.1777 9.71809 13.3677 12.2649C12.974 12.607 12.6045 12.9764 12.2625 13.3702C9.71565 16.1801 8.16406 19.9088 8.16406 23.9998C8.16406 32.7443 15.2529 39.8332 23.9974 39.8332C32.7419 39.8332 39.8307 32.7443 39.8307 23.9998C39.8307 15.2553 32.7419 8.1665 23.9974 8.1665ZM23.9974 37.4582C31.4302 37.4582 37.4557 31.4327 37.4557 23.9998C37.4557 17.0287 32.1556 11.2956 25.3652 10.6102C29.1192 12.3854 31.7161 16.207 31.7161 20.6353C31.7161 23.518 30.6156 26.1437 28.8117 28.1151C28.5971 28.3658 28.3634 28.5996 28.1127 28.8141C26.1413 30.618 23.5156 31.7186 20.6328 31.7186C16.2046 31.7186 12.3829 29.1216 10.6077 25.3676C11.2931 32.158 17.0263 37.4582 23.9974 37.4582ZM27.0306 26.5433C26.8738 26.7129 26.7105 26.8763 26.5408 27.033C25.8529 27.6104 24.9658 27.9582 23.9974 27.9582C21.8113 27.9582 20.0391 26.186 20.0391 23.9998C20.0391 21.8137 21.8113 20.0415 23.9974 20.0415C26.1835 20.0415 27.9557 21.8137 27.9557 23.9998C27.9557 24.9682 27.608 25.8554 27.0306 26.5433ZM29.3411 20.5989C28.2166 18.8358 26.2436 17.6665 23.9974 17.6665C20.4996 17.6665 17.6641 20.502 17.6641 23.9998C17.6641 26.246 18.8334 28.2191 20.5965 29.3435C15.8037 29.3239 11.9245 25.4326 11.9245 20.6353C11.9245 18.4604 12.7217 16.4718 14.04 14.9456C14.3266 14.6305 14.6281 14.3291 14.9432 14.0424C16.4693 12.7242 18.458 11.9269 20.6328 11.9269C25.4302 11.9269 29.3215 15.8061 29.3411 20.5989Z" fill="url(#paint1_linear_3046_38812)"/>
</g>
</g>
<rect x="1" y="1" width="46" height="46" rx="11" stroke="url(#paint2_linear_3046_38812)" stroke-width="2"/>
</g>
<path d="M65.55 32.9999L60 11.9999H64.11L67.89 28.7099L72.33 11.9999H76.56L80.88 28.7099L84.66 11.9999H88.8L83.1 32.9999H78.54L74.37 17.4299L70.08 32.9999H65.55Z" fill="#0A0D12"/>
<path d="M93.1238 33.3599C91.8438 33.3599 90.7938 33.1599 89.9738 32.7599C89.1538 32.3399 88.5438 31.7899 88.1438 31.1099C87.7438 30.4299 87.5438 29.6799 87.5438 28.8599C87.5438 27.4799 88.0838 26.3599 89.1638 25.4999C90.2438 24.6399 91.8638 24.2099 94.0238 24.2099H97.8038V23.8499C97.8038 22.8299 97.5138 22.0799 96.9338 21.5999C96.3538 21.1199 95.6338 20.8799 94.7738 20.8799C93.9938 20.8799 93.3138 21.0699 92.7337 21.4499C92.1537 21.8099 91.7938 22.3499 91.6538 23.0699H87.9038C88.0038 21.9899 88.3638 21.0499 88.9838 20.2499C89.6238 19.4499 90.4438 18.8399 91.4438 18.4199C92.4437 17.9799 93.5638 17.7599 94.8038 17.7599C96.9238 17.7599 98.5938 18.2899 99.8138 19.3499C101.034 20.4099 101.644 21.9099 101.644 23.8499V32.9999H98.3738L98.0138 30.5999C97.5738 31.3999 96.9538 32.0599 96.1538 32.5799C95.3738 33.0999 94.3638 33.3599 93.1238 33.3599ZM93.9938 30.3599C95.0938 30.3599 95.9438 29.9999 96.5438 29.2799C97.1637 28.5599 97.5538 27.6699 97.7138 26.6099H94.4438C93.4238 26.6099 92.6937 26.7999 92.2537 27.1799C91.8137 27.5399 91.5938 27.9899 91.5938 28.5299C91.5938 29.1099 91.8137 29.5599 92.2537 29.8799C92.6937 30.1999 93.2738 30.3599 93.9938 30.3599Z" fill="#0A0D12"/>
<path d="M109.933 32.9999C108.373 32.9999 107.123 32.6199 106.183 31.8599C105.243 31.0999 104.773 29.7499 104.773 27.8099V21.3299H102.223V18.1199H104.773L105.223 14.1299H108.613V18.1199H112.633V21.3299H108.613V27.8399C108.613 28.5599 108.763 29.0599 109.063 29.3399C109.383 29.5999 109.923 29.7299 110.683 29.7299H112.543V32.9999H109.933Z" fill="#0A0D12"/>
<path d="M121.039 33.3599C119.519 33.3599 118.179 33.0299 117.019 32.3699C115.859 31.7099 114.939 30.7899 114.259 29.6099C113.599 28.4299 113.269 27.0799 113.269 25.5599C113.269 24.0399 113.599 22.6899 114.259 21.5099C114.939 20.3299 115.859 19.4099 117.019 18.7499C118.179 18.0899 119.519 17.7599 121.039 17.7599C122.939 17.7599 124.539 18.2599 125.839 19.2599C127.139 20.2399 127.969 21.5999 128.329 23.3399H124.279C124.079 22.6199 123.679 22.0599 123.079 21.6599C122.499 21.2399 121.809 21.0299 121.009 21.0299C119.949 21.0299 119.049 21.4299 118.309 22.2299C117.569 23.0299 117.199 24.1399 117.199 25.5599C117.199 26.9799 117.569 28.0899 118.309 28.8899C119.049 29.6899 119.949 30.0899 121.009 30.0899C121.809 30.0899 122.499 29.8899 123.079 29.4899C123.679 29.0899 124.079 28.5199 124.279 27.7799H128.329C127.969 29.4599 127.139 30.8099 125.839 31.8299C124.539 32.8499 122.939 33.3599 121.039 33.3599Z" fill="#0A0D12"/>
<path d="M129.938 32.9999V11.3999H133.778V20.3999C134.278 19.5799 134.948 18.9399 135.788 18.4799C136.648 17.9999 137.628 17.7599 138.728 17.7599C140.568 17.7599 141.988 18.3399 142.988 19.4999C144.007 20.6599 144.518 22.3599 144.518 24.5999V32.9999H140.708V24.9599C140.708 23.6799 140.448 22.6999 139.928 22.0199C139.428 21.3399 138.628 20.9999 137.528 20.9999C136.448 20.9999 135.548 21.3799 134.828 22.1399C134.128 22.8999 133.778 23.9599 133.778 25.3199V32.9999H129.938Z" fill="#0A0D12"/>
<path d="M153.019 32.9999C151.459 32.9999 150.209 32.6199 149.269 31.8599C148.329 31.0999 147.859 29.7499 147.859 27.8099V21.3299H145.309V18.1199H147.859L148.309 14.1299H151.699V18.1199H155.719V21.3299H151.699V27.8399C151.699 28.5599 151.849 29.0599 152.149 29.3399C152.469 29.5999 153.009 29.7299 153.769 29.7299H155.629V32.9999H153.019Z" fill="#0A0D12"/>
<path d="M163.976 33.3599C162.536 33.3599 161.236 33.0299 160.076 32.3699C158.936 31.7099 158.026 30.7999 157.346 29.6399C156.686 28.4599 156.356 27.0999 156.356 25.5599C156.356 24.0199 156.696 22.6699 157.376 21.5099C158.056 20.3299 158.966 19.4099 160.106 18.7499C161.266 18.0899 162.566 17.7599 164.006 17.7599C165.426 17.7599 166.706 18.0899 167.846 18.7499C169.006 19.4099 169.916 20.3299 170.576 21.5099C171.256 22.6699 171.596 24.0199 171.596 25.5599C171.596 27.0999 171.256 28.4599 170.576 29.6399C169.916 30.7999 169.006 31.7099 167.846 32.3699C166.686 33.0299 165.396 33.3599 163.976 33.3599ZM163.976 30.0299C164.976 30.0299 165.846 29.6599 166.586 28.9199C167.326 28.1599 167.696 27.0399 167.696 25.5599C167.696 24.0799 167.326 22.9699 166.586 22.2299C165.846 21.4699 164.986 21.0899 164.006 21.0899C162.986 21.0899 162.106 21.4699 161.366 22.2299C160.646 22.9699 160.286 24.0799 160.286 25.5599C160.286 27.0399 160.646 28.1599 161.366 28.9199C162.106 29.6599 162.976 30.0299 163.976 30.0299Z" fill="#0A0D12"/>
<path d="M175.612 32.9999L171.262 18.1199H175.072L177.652 28.8299L180.652 18.1199H184.912L187.912 28.8299L190.522 18.1199H194.332L189.952 32.9999H185.962L182.782 21.8699L179.602 32.9999H175.612Z" fill="#0A0D12"/>
<path d="M201.657 33.3599C200.157 33.3599 198.827 33.0399 197.667 32.3999C196.507 31.7599 195.597 30.8599 194.937 29.6999C194.277 28.5399 193.947 27.1999 193.947 25.6799C193.947 24.1399 194.267 22.7699 194.907 21.5699C195.567 20.3699 196.467 19.4399 197.607 18.7799C198.767 18.0999 200.127 17.7599 201.687 17.7599C203.147 17.7599 204.437 18.0799 205.557 18.7199C206.677 19.3599 207.547 20.2399 208.167 21.3599C208.807 22.4599 209.127 23.6899 209.127 25.0499C209.127 25.2699 209.117 25.4999 209.097 25.7399C209.097 25.9799 209.087 26.2299 209.067 26.4899H197.757C197.837 27.6499 198.237 28.5599 198.957 29.2199C199.697 29.8799 200.587 30.2099 201.627 30.2099C202.407 30.2099 203.057 30.0399 203.577 29.6999C204.117 29.3399 204.517 28.8799 204.777 28.3199H208.677C208.397 29.2599 207.927 30.1199 207.267 30.8999C206.627 31.6599 205.827 32.2599 204.867 32.6999C203.927 33.1399 202.857 33.3599 201.657 33.3599ZM201.687 20.8799C200.747 20.8799 199.917 21.1499 199.197 21.6899C198.477 22.2099 198.017 23.0099 197.817 24.0899H205.227C205.167 23.1099 204.807 22.3299 204.147 21.7499C203.487 21.1699 202.667 20.8799 201.687 20.8799Z" fill="#0A0D12"/>
<path d="M210.557 32.9999V18.1199H213.977L214.337 20.9099C214.877 19.9499 215.607 19.1899 216.527 18.6299C217.467 18.0499 218.567 17.7599 219.827 17.7599V21.8099H218.747C217.907 21.8099 217.157 21.9399 216.497 22.1999C215.837 22.4599 215.317 22.9099 214.937 23.5499C214.577 24.1899 214.397 25.0799 214.397 26.2199V32.9999H210.557Z" fill="#0A0D12"/>
<defs>
<filter id="filter0_iii_3046_38812" x="0" y="-3" width="48" height="54" filterUnits="userSpaceOnUse" color-interpolation-filters="sRGB">
<feFlood flood-opacity="0" result="BackgroundImageFix"/>
<feBlend mode="normal" in="SourceGraphic" in2="BackgroundImageFix" result="shape"/>
<feColorMatrix in="SourceAlpha" type="matrix" values="0 0 0 0 0 0 0 0 0 0 0 0 0 0 0 0 0 0 127 0" result="hardAlpha"/>
<feOffset dy="-3"/>
<feGaussianBlur stdDeviation="1.5"/>
<feComposite in2="hardAlpha" operator="arithmetic" k2="-1" k3="1"/>
<feColorMatrix type="matrix" values="0 0 0 0 0 0 0 0 0 0 0 0 0 0 0 0 0 0 0.1 0"/>
<feBlend mode="normal" in2="shape" result="effect1_innerShadow_3046_38812"/>
<feColorMatrix in="SourceAlpha" type="matrix" values="0 0 0 0 0 0 0 0 0 0 0 0 0 0 0 0 0 0 127 0" result="hardAlpha"/>
<feOffset dy="3"/>
<feGaussianBlur stdDeviation="1.5"/>
<feComposite in2="hardAlpha" operator="arithmetic" k2="-1" k3="1"/>
<feColorMatrix type="matrix" values="0 0 0 0 1 0 0 0 0 1 0 0 0 0 1 0 0 0 0.1 0"/>
<feBlend mode="normal" in2="effect1_innerShadow_3046_38812" result="effect2_innerShadow_3046_38812"/>
<feColorMatrix in="SourceAlpha" type="matrix" values="0 0 0 0 0 0 0 0 0 0 0 0 0 0 0 0 0 0 127 0" result="hardAlpha"/>
<feMorphology radius="1" operator="erode" in="SourceAlpha" result="effect3_innerShadow_3046_38812"/>
<feOffset/>
<feComposite in2="hardAlpha" operator="arithmetic" k2="-1" k3="1"/>
<feColorMatrix type="matrix" values="0 0 0 0 0 0 0 0 0 0 0 0 0 0 0 0 0 0 0.2 0"/>
<feBlend mode="normal" in2="effect2_innerShadow_3046_38812" result="effect3_innerShadow_3046_38812"/>
</filter>
<filter id="filter1_d_3046_38812" x="4.16406" y="4" width="39.6699" height="46" filterUnits="userSpaceOnUse" color-interpolation-filters="sRGB">
<feFlood flood-opacity="0" result="BackgroundImageFix"/>
<feColorMatrix in="SourceAlpha" type="matrix" values="0 0 0 0 0 0 0 0 0 0 0 0 0 0 0 0 0 0 127 0" result="hardAlpha"/>
<feMorphology radius="2" operator="erode" in="SourceAlpha" result="effect1_dropShadow_3046_38812"/>
<feOffset dy="3"/>
<feGaussianBlur stdDeviation="3"/>
<feComposite in2="hardAlpha" operator="out"/>
<feColorMatrix type="matrix" values="0 0 0 0 0.141176 0 0 0 0 0.141176 0 0 0 0 0.141176 0 0 0 0.1 0"/>
<feBlend mode="normal" in2="BackgroundImageFix" result="effect1_dropShadow_3046_38812"/>
<feBlend mode="normal" in="SourceGraphic" in2="effect1_dropShadow_3046_38812" result="shape"/>
</filter>
<linearGradient id="paint0_linear_3046_38812" x1="24" y1="5.96047e-07" x2="26" y2="48" gradientUnits="userSpaceOnUse">
<stop stop-color="white" stop-opacity="0"/>
<stop offset="1" stop-color="white" stop-opacity="0.12"/>
</linearGradient>
<linearGradient id="paint1_linear_3046_38812" x1="23.9974" y1="8.1665" x2="23.9974" y2="39.8332" gradientUnits="userSpaceOnUse">
<stop stop-color="white" stop-opacity="0.8"/>
<stop offset="1" stop-color="white" stop-opacity="0.5"/>
</linearGradient>
<linearGradient id="paint2_linear_3046_38812" x1="24" y1="0" x2="24" y2="48" gradientUnits="userSpaceOnUse">
<stop stop-color="white" stop-opacity="0.12"/>
<stop offset="1" stop-color="white" stop-opacity="0"/>
</linearGradient>
<clipPath id="clip0_3046_38812">
<rect width="48" height="48" rx="12" fill="white"/>
</clipPath>
</defs>
</svg>
